<svg width="182" height="180" viewBox="0 0 182 180" fill="none" xmlns="http://www.w3.org/2000/svg">
<path fill-rule="evenodd" clip-rule="evenodd" d="M86.3519 24.9078C86.6965 25.0131 88.1611 25.6736 88.4004 25.6736C88.4952 25.6588 88.5816 25.6107 88.6439 25.5378C88.7063 25.465 88.7406 25.3722 88.7406 25.2763C88.7406 25.1804 88.7063 25.0877 88.6439 25.0148C88.5816 24.942 88.4952 24.8938 88.4004 24.8791C88.2855 24.8791 87.826 24.6589 87.5197 24.5345C86.3519 24.0462 86.2274 23.9984 86.0072 24.2473C85.9555 24.3082 85.923 24.3833 85.9141 24.4628C85.9052 24.5423 85.9202 24.6226 85.9572 24.6935C85.9942 24.7644 86.0515 24.8227 86.1218 24.8609C86.1921 24.8991 86.2722 24.9154 86.3519 24.9078ZM96.6903 33.5232C96.0531 34.1356 95.2629 34.5654 94.4025 34.7676C94.4025 34.7676 93.5218 34.9208 94.1057 35.1697C94.5276 35.362 95.007 35.386 95.4459 35.2367C96.5276 34.9208 97.102 34.021 97.0062 33.5328C96.8435 33.2839 96.9201 33.2839 96.6903 33.5232ZM107.804 160.256C108.093 161.156 108.485 162.02 108.972 162.831C111.499 167.521 113.644 170.594 113.538 170.594H113.864C113.921 169.57 108.493 160.15 107.804 160.256ZM115.223 158.37C114.965 158.37 114.677 157.977 115.529 159.729C116.707 162.132 119.263 166.736 121.034 168.727C122.46 169.819 116.716 160.399 115.223 158.37ZM137.03 163.635C136.714 163.721 136.685 163.635 136.8 163.941C137.877 167.038 139.296 170.004 141.031 172.786C141.825 173.744 139.375 167.387 137.03 163.635ZM153.954 158.848C153.562 158.762 153.475 158.628 154.433 160.763C155.39 162.898 158.147 167.828 158.539 167.818C158.616 167.818 158.654 167.77 158.683 167.684C157.406 164.588 155.821 161.628 153.954 158.848ZM143.089 29.5984C143.185 29.5984 173.913 28.1912 174.372 27.9615C174.889 27.5786 174.765 28.1529 174.909 15.3255C174.909 12.7409 175.052 3.53203 174.976 3.11083C174.765 2.43117 174.085 2.44075 173.233 2.41203C166.915 2.23015 143.96 3.7522 138.906 3.9628C138.657 3.9628 138.389 3.9628 138.389 4.31699C138.284 4.31699 140.303 29.0815 140.303 29.2059C140.562 29.8856 141.06 29.6941 143.089 29.5984ZM173.482 3.94365C173.482 5.00622 173.176 26.516 173.166 26.5351C173.157 26.5543 141.644 28.2104 141.577 28.3061C141.577 28.1051 139.719 10.6637 139.069 4.60417C143.702 4.58502 169.299 3.72348 173.482 3.94365Z" fill="#0F172A"/>
<path fill-rule="evenodd" clip-rule="evenodd" d="M156.452 17.2502C156.692 17.5469 157.476 16.8386 158.778 15.9483C160.923 14.4837 164.78 11.7938 166.858 10.2047C168.303 7.77325 164.34 10.6451 163.89 10.9897C162.071 12.4064 157.189 16.3121 156.625 16.8003C155.667 15.9196 146.774 9.84095 146.679 9.74522C145.807 9.57291 145.568 10.0707 146.018 10.7025C148.698 12.5309 156.299 17.0396 156.452 17.2502ZM165.316 52.669C156.299 52.669 150 57.3884 149.091 67.1812C148.354 75.1265 152.355 80.2957 157.496 82.4113C162.081 84.3258 167.346 84.7949 172.123 82.6793C174.925 81.411 177.401 79.5184 179.36 77.1463C185.716 69.0287 179.742 52.669 165.316 52.669ZM173.827 78.1036C165.987 84.1344 155.169 80.1809 152.882 73.0014C151.474 68.5979 152.767 61.6769 156.136 58.5658C159.506 55.4547 166.121 54.4783 170.428 56.1056C177.455 58.7573 183.093 70.972 173.827 78.1036ZM47.477 21.0793C47.41 19.4806 47.343 18.083 47.2855 16.9247C47.7641 17.0767 48.1893 17.3623 48.5108 17.748C49.2766 19.2796 50.4828 18.5329 50.4828 17.4895C50.2435 16.1972 48.8267 15.2112 47.209 14.9336C47.1611 13.4594 47.209 13.8136 46.8069 13.5839C46.3378 13.7945 46.4431 13.7083 46.3378 14.8666C45.4308 14.8288 44.5364 15.0891 43.7913 15.6077C43.0462 16.1263 42.4915 16.8747 42.212 17.7384C41.2548 20.5049 43.6575 21.2899 45.9358 22.1801C45.9358 23.7692 45.8496 25.6358 45.8401 27.8471C45.3648 27.909 44.8817 27.8473 44.4373 27.6679C43.9929 27.4884 43.6023 27.1974 43.3033 26.8229C42.279 25.0615 42.1737 25.6263 42.346 26.574C42.6907 28.1343 44.2031 28.881 45.8496 28.9288C45.8496 30.537 45.6678 31.3794 47.2377 31.2454C47.8695 30.8051 47.8695 30.9008 47.7929 28.6895C49.3724 28.23 50.6647 27.1579 50.8083 25.588C50.9519 23.2427 49.2192 21.9504 47.477 21.0793ZM45.9549 20.4475C45.153 20.2112 44.4269 19.7689 43.849 19.1647C43.6479 18.734 44.0883 17.949 44.385 17.5948C44.6062 17.3321 44.8837 17.1225 45.1969 16.9817C45.5101 16.8408 45.851 16.7723 46.1943 16.7811C46.1272 17.7001 46.0602 18.9063 45.9549 20.4475ZM47.6876 27.4834C47.6397 25.856 47.5823 24.334 47.5249 22.9268C48.2848 23.2537 48.8933 23.8554 49.2288 24.6116C49.784 25.9996 49.0661 26.909 47.7259 27.4834H47.6876ZM97.9728 25.4348C98.7151 25.0304 99.5112 24.7338 100.337 24.5541C100.44 24.5326 100.53 24.471 100.588 24.383C100.645 24.2951 100.665 24.1879 100.644 24.0851C100.622 23.9822 100.56 23.8922 100.472 23.8348C100.385 23.7773 100.277 23.7572 100.174 23.7787C100.174 23.7787 97.1783 24.5158 97.3027 25.2242C97.3172 25.2943 97.3502 25.3593 97.3982 25.4124C97.4462 25.4656 97.5076 25.5049 97.5759 25.5264C97.6442 25.5478 97.717 25.5507 97.7868 25.5346C97.8566 25.5185 97.9208 25.484 97.9728 25.4348Z" fill="#0F172A"/>
<path fill-rule="evenodd" clip-rule="evenodd" d="M166.791 60.2024C165.747 59.6568 167.001 62.4232 166.102 68.6646C157.486 68.6646 158.913 68.253 158.08 68.6646C157.276 69.5549 157.735 70.4451 158.922 70.5026C159.726 70.5026 166.35 70.5026 167.059 70.2058C167.767 69.9091 167.691 68.9327 167.71 68.0998C167.689 65.8564 167.51 63.6172 167.174 61.399C167.059 60.6332 167.03 60.3747 166.791 60.2024ZM164.752 155.824C163.775 155.225 162.731 154.743 161.641 154.388C159.732 153.715 157.736 153.321 155.715 153.22C145.76 152.827 142.199 160.256 132.281 158.619C126.538 157.662 121.081 154.436 117.635 153.536C112.332 152.138 107.785 154.129 102.845 156.647C100.625 157.777 96.4605 161.338 96.2212 160.476C95.1777 158.619 94.9288 148.501 95.0629 135.089C100.299 135.568 110.982 133.921 119.444 129.757C123.636 127.638 127.06 124.261 129.237 120.099C129.988 118.784 130.582 117.387 131.008 115.934C134.359 104.265 133.612 99.144 133.794 93.7354C140.303 86.1347 140.495 63.6581 129.572 49.28C127.112 45.9678 120.794 41.9569 118.707 41.1815C119.007 40.9812 119.252 40.7089 119.419 40.3894C119.586 40.07 119.671 39.7137 119.665 39.3531C119.77 37.6875 119.435 37.1897 120.995 36.2899C121.598 36.0067 122.138 35.6065 122.584 35.1124C123.028 34.4646 123.388 33.7635 123.656 33.0256C124.882 29.0529 120.957 29.1104 122.01 22.5723C122.174 21.6501 122.219 20.7107 122.144 19.777C122.113 18.9783 121.828 18.2103 121.33 17.5849C120.76 16.937 120.275 16.2198 119.885 15.4502C119.186 13.1815 119.435 11.1808 118.487 9.27583C117.835 8.02099 117.045 6.84268 116.132 5.76266C113.71 2.98659 110.915 3.6471 107.632 2.11547C106.487 1.50889 105.3 0.984268 104.08 0.545558C101.46 -0.0377668 98.7575 -0.154425 96.0967 0.200942C93.0813 0.698721 88.0748 3.56095 85.203 7.38044C84.5898 8.17369 84.0423 9.01569 83.5661 9.89805C82.2223 12.5837 81.3144 15.466 80.8762 18.4369C80.6656 20.0259 81.1921 19.844 80.656 21.414C79.603 21.5193 79.5743 21.5671 79.536 21.7682C79.6553 22.2599 79.8254 22.7379 80.0434 23.1945C79.737 24.1039 79.4307 25.0133 79.3446 25.3292C78.9904 27.2437 80.0912 29.1582 79.1722 30.709C78.416 31.9726 76.4345 32.6236 76.0228 34.2126C75.4676 36.309 76.6163 38.3097 78.1288 39.8988C78.2617 40.0755 78.4359 40.2168 78.6362 40.3104C73.084 42.4164 69.7336 46.8102 69.7623 47.0878L64.4782 46.3986C64.1432 46.3986 64.5739 45.92 64.0666 53.9514C63.8876 53.7839 63.6512 53.6914 63.4061 53.693C61.6734 53.693 61.0799 57.5795 60.9267 59.3026C60.697 61.7915 60.6874 64.0889 62.7551 65.5439C62.9195 65.6589 63.096 65.7552 63.2816 65.8311C63.0136 69.7463 62.7264 74.1306 62.4297 78.8116C58.2919 77.7884 54.0465 77.2646 49.7842 77.2513C46.0766 77.1904 42.3918 77.8403 38.9288 79.1658C30.3134 82.2099 23.7657 87.1973 18.5773 96.5306C18.5198 96.6264 15.4662 102.274 14.5951 104.38C13.3219 107.424 12.8528 110.622 16.0597 111.378C16.9513 111.561 17.8762 111.491 18.7304 111.177C17.4764 116.806 13.7527 138.698 13.7431 138.823C12.2306 138.315 1.83469 135.137 0.38922 135.75C0.235423 135.817 0.113685 135.942 0.0494607 136.097C-0.014764 136.252 -0.0165042 136.426 0.0446044 136.583C0.762554 138.823 13.9154 146.979 16.9691 148.395C18.3092 149.008 18.2901 148.73 18.74 147.965C22.6361 141.398 28.6956 126.177 32.9076 119.381C31.6344 133.395 36.4686 152.885 40.5657 166.392C38.6512 167.579 32.3332 170.613 30.1985 172.748C30.1123 172.844 27.1735 174.95 29.1264 175.831C29.7677 176.185 32.2279 176.06 35.138 175.754C36.3824 175.61 48.2334 174.242 48.8269 173.284C49.2864 172.681 48.6546 169.723 48.4727 168.747C47.934 165.373 47.7128 161.957 47.8122 158.542C48.0898 146.213 53.5558 132.189 57.5955 126.522C58.7245 127.782 59.5613 129.276 60.0461 130.897C59.778 145.686 60.1226 158.293 61.6734 164.276C62.6707 168.681 65.3413 172.526 69.1209 174.998C79.1052 181.603 97.3124 180.808 108.369 177.535C112.82 176.214 118.277 173.792 123.245 174.232C127.026 174.557 129.515 176.462 135.967 177.649C145.281 179.353 148.411 176.156 153.724 173.82C159.468 171.322 163.498 170.058 169.404 172.222C171.45 173.072 173.414 174.106 175.272 175.314C176.296 176.022 176.229 176.204 176.612 176.185C176.687 176.177 176.758 176.146 176.815 176.096C176.871 176.047 176.911 175.98 176.928 175.907C176.928 175.639 177.723 177.113 164.752 155.824ZM32.965 118.72C29.4327 124.062 24.2826 135.415 20.7216 142.652C18.636 141.473 16.5427 140.309 14.4419 139.158C14.7482 137.731 18.9793 112.019 19.1516 111.062C22.3202 109.875 25.6036 106.955 30.2751 110.258C31.5291 111.148 32.7735 112.517 34.1041 113.685C33.7007 114.48 33.4352 115.338 33.3192 116.222C33.1756 117.007 33.0511 117.83 32.9554 118.682L32.965 118.72ZM47.324 165.53C45.3191 165.612 43.3259 165.878 41.3698 166.325C38.0194 154.464 30.8877 130.839 33.7882 116.078C33.9414 115.274 34.0754 114.767 34.1711 114.432C34.3913 113.752 34.3913 113.905 34.7838 114.202C38.9575 117.389 41.3985 115.274 45.1893 116.633C46.3067 117.049 47.3505 117.64 48.2813 118.385C49.4816 119.459 50.3738 120.834 50.8659 122.367C51.0798 123.009 51.4797 123.572 52.0146 123.985C54.111 125.823 55.7479 124.99 57.4232 126.349C57.27 126.378 45.352 143.848 47.2761 165.502L47.324 165.53ZM121.761 127.594C118.104 130.198 109.23 133.749 99.227 134.592C96.9104 134.793 95.5989 134.764 95.1107 134.869C95.1107 133.395 95.1107 131.882 95.1777 130.341C96.3743 130.246 99.3993 129.767 99.8492 129.69C105.191 128.733 113.098 126.819 117.08 123.114C118.037 123.956 118.037 124.014 118.296 123.947C119.51 122.885 120.587 121.676 121.503 120.347C124.776 115.733 127.074 109.942 127.552 101.413C127.552 101.336 127.658 99.144 127.639 98.3782C129.891 97.4413 131.896 95.9965 133.497 94.1566C132.846 106.132 132.109 120.146 121.713 127.565L121.761 127.594ZM94.9576 66.0321C93.8255 65.6324 92.7354 65.1226 91.7029 64.5101C91.5976 64.4134 91.5295 64.283 91.5103 64.1414C91.4911 63.9998 91.5219 63.8559 91.5976 63.7347C92.3347 63.0072 94.1343 63.5337 95.0916 63.9357C95.2543 64.0027 95.5128 64.1176 95.6468 63.7921C95.7808 63.4667 95.6468 63.4858 94.6895 62.8923C94.3832 62.7009 93.6174 62.2127 93.0909 61.8202C92.7466 61.615 92.4754 61.307 92.3155 60.9395C92.2485 60.6236 92.5453 60.1737 93.2728 60.2024C94.6165 60.4591 95.8721 61.0556 96.92 61.935C96.9532 61.9719 96.9938 62.0014 97.0391 62.0216C97.0845 62.0418 97.1336 62.0523 97.1832 62.0523C97.2328 62.0523 97.2819 62.0418 97.3273 62.0216C97.3727 62.0014 97.4132 61.9719 97.4465 61.935C97.6858 61.6 97.6188 59.5993 98.308 58.2209C98.442 58.0198 98.5473 57.7709 98.7579 57.7614C99.6195 57.7614 99.6577 59.9822 99.6386 60.7959C99.6386 63.2752 99.1695 63.0359 99.8109 63.7347C100.563 64.4557 101.387 65.0973 102.271 65.6492C101.974 66.0417 102.788 65.0079 98.2506 70.6079C97.7336 70.091 97.054 68.3966 96.537 68.5689C95.1107 69.2868 91.0806 67.9371 91.2338 66.7692C91.3391 65.9364 93.1483 66.2619 94.0482 66.3959C94.948 66.5299 94.8618 66.5395 95.0054 66.3959C95.0291 66.367 95.0465 66.3335 95.0565 66.2976C95.0666 66.2616 95.0689 66.2239 95.0635 66.187C95.0581 66.15 95.045 66.1146 95.0251 66.083C95.0052 66.0514 94.979 66.0243 94.948 66.0034L94.9576 66.0321ZM90.5924 32.1258C91.2606 32.4792 91.987 32.7094 92.7367 32.8054C92.9377 32.614 92.9282 32.6906 92.7367 32.4895C92.0765 32.2714 91.4559 31.9482 90.8988 31.5323C90.9849 30.9771 92.3442 27.3969 92.6697 26.3056C92.8707 25.6355 92.9282 25.4632 93.0909 24.8505C93.5819 24.822 94.0741 24.822 94.5651 24.8505C94.572 25.8084 94.7204 26.76 95.0054 27.6745C95.8287 29.0434 99.562 29.1295 101.151 29.0625C102.74 28.9955 103.382 28.9189 104.023 28.0095C103.267 30.8227 102.836 33.7135 102.74 36.6249C102.286 37.4686 101.656 38.2051 100.893 38.7847C100.13 39.3643 99.2521 39.7736 98.3176 39.9849C93.5982 40.7316 91.1094 39.6977 88.429 35.9644C87.0754 34.0712 86.2046 31.8761 85.8923 29.5699C87.6171 29.6544 89.3401 29.3705 90.9466 28.737C89.9223 31.4844 90.0468 31.7907 90.5924 32.1258ZM95.3788 21.8639C96.5275 21.6437 102.539 21.9213 105.813 21.9883C105.44 22.9456 104.942 24.5251 104.444 26.3343C104.168 27.0854 103.766 27.7845 103.257 28.402C102.549 28.8041 97.9825 28.7179 96.202 27.7511C95.35 27.3012 95.35 27.2341 95.35 21.8639H95.3788ZM99.9928 40.2242L99.9066 40.3487C99.0571 41.7687 98.0969 43.1194 97.0348 44.3884C96.6806 43.8619 95.1203 41.5166 94.747 40.8465C95.9562 40.9662 97.1758 40.9275 98.375 40.7316C98.9375 40.6481 99.4834 40.4769 99.9928 40.2242ZM88.5056 42.0622C88.7353 44.6496 89.1901 47.212 89.8649 49.7203C88.6442 49.4177 87.4073 49.1844 86.1603 49.0215C86.6389 47.7771 88.3333 42.4451 88.4864 42.0431L88.5056 42.0622ZM89.1565 40.5976C89.8291 40.317 90.4707 39.9673 91.0711 39.5542C92.0451 40.2169 93.1589 40.6461 94.3258 40.8082C94.8743 42.1909 95.5538 43.518 96.3552 44.7713C91.1955 49.6342 90.9658 49.9405 91.4635 49.8639C92.4208 49.6629 96.068 46.1306 96.7381 45.4796C97.5518 46.3029 101.007 50.7829 101.668 51.5296C102.003 51.7976 102.204 51.4626 102.53 51.1562C103.898 49.8735 104.549 49.3087 104.894 49.0407C96.9008 71.4694 101.515 61.1884 99.7918 57.8667C99.6959 57.6018 99.5037 57.3828 99.2536 57.2533C99.0034 57.1237 98.7136 57.0933 98.442 57.1679C98.2087 57.2906 98.0032 57.4603 97.8384 57.6662C97.6737 57.8721 97.5533 58.1098 97.4847 58.3644C97.6283 54.3248 97.7049 51.6636 97.6571 50.9073C97.6571 50.7159 98.2506 50.7829 90.1712 49.7395C90.1808 49.6246 89.1565 40.6742 89.1374 40.5784L89.1565 40.5976ZM98.0782 70.9238C97.7241 71.4024 97.4082 71.881 97.121 72.2257C97.121 71.3258 97.2167 70.5217 97.2646 69.8325C97.4646 70.2336 97.7336 70.5965 98.0591 70.9046L98.0782 70.9238ZM97.0061 74.9251C102.29 90.385 109.652 103.643 125.303 99.1727C125.983 98.9812 126.643 98.7611 127.304 98.5026C127.304 107.338 124.633 117.265 118.171 123.296C111.313 116.884 103.824 111.182 95.8191 106.276C96.0297 96.3105 96.5562 83.1576 96.987 74.906L97.0061 74.9251ZM111.365 41.7654C112.612 41.9354 113.84 42.2239 115.031 42.627C115.487 42.8025 115.992 42.8025 116.448 42.627C116.99 42.4277 117.499 42.1503 117.961 41.8037C119.636 41.9569 125.322 45.8434 127.821 48.3036C130.692 51.1754 133.957 57.0626 135.881 63.8017C138.465 73.2212 139.107 88.8151 130.999 95.3915C126.509 99.0291 119.32 100.178 114.562 98.4452C105.172 95.1235 100.538 82.8513 97.3316 73.4318C97.6092 72.3214 103.19 65.6205 103.879 64.8164C110.446 64.6441 123.082 74.1689 124.7 77.7395L124.987 77.6055C123.551 74.4082 113.797 66.5108 106.742 64.6154C106.962 62.7583 107.345 57.4742 107.345 57.3785C109.585 57.2157 112.035 57.5412 112.131 56.9094C112.188 55.7894 110.216 44.149 109.814 42.0526C110.291 41.8429 110.806 41.7385 111.327 41.7463L111.365 41.7654ZM108.043 42.8089C108.541 42.6328 109.03 42.4315 109.508 42.2058C109.508 42.3015 111.279 56.4403 111.289 56.5648C106.301 56.7562 106.598 56.2393 106.55 58.1538C106.55 58.24 106.416 63.7634 106.397 64.5867C105.928 64.4718 103.879 64.0697 103.525 64.3282C103.372 64.4814 103.056 64.8356 102.635 65.2855C102.214 64.9696 101.285 64.3282 100.653 63.7443C101.343 62.2414 99.6482 66.1374 108.005 42.7897L108.043 42.8089ZM105.172 48.4759C104.073 49.1634 103.027 49.9313 102.041 50.7733C101.237 49.682 98.7388 46.3986 97.5326 45.1063C98.636 43.9253 99.5093 42.5488 100.108 41.0475C100.255 40.7464 100.353 40.423 100.395 40.0902C101.334 39.564 102.155 38.8505 102.807 37.9938C103.046 40.9901 104.195 43.2109 107.134 43.0195C106.655 44.1107 106.033 45.8338 105.105 48.4567L105.172 48.4759ZM85.069 17.8434C85.6721 18.8676 85.6434 19.0399 86.2273 19.3463C86.8908 19.6577 87.6203 19.8023 88.3524 19.7675C89.6926 19.5952 90.5541 18.2837 91.8273 18.1305C92.0762 18.1305 94.9576 20.1025 96.6136 19.576C98.2697 19.0495 99.1217 17.7668 100.318 18.3507C101.515 18.9346 102.051 20.5429 104.636 19.6909C105.449 19.3372 106.222 18.8976 106.943 18.3794C106.762 19.3841 106.493 20.3708 106.138 21.3278C103.898 21.1746 97.523 20.9449 95.7521 21.0693C94.9001 21.1268 94.4694 21.0693 94.5364 23.2423C93.7797 23.1811 93.0185 23.2068 92.2676 23.3189C92.2773 22.916 92.2581 22.5129 92.2102 22.1128C92.0953 21.3278 91.8943 21.2417 91.4061 21.1555C90.9179 21.0693 87.8834 21.1555 84.9446 21.2034C84.7824 20.0754 84.7953 18.9291 84.9828 17.8051L85.069 17.8434ZM91.4253 21.9788C91.5981 23.9157 91.5079 25.8671 91.1572 27.7798C90.0851 29.0912 84.2075 29.5603 83.4225 28.8711C82.5227 27.6649 80.857 23.3381 80.455 22.1702C82.2068 22.1128 91.3391 21.6724 91.3391 21.9405L91.4253 21.9788ZM78.9904 40.454C81.8859 41.4331 84.9847 41.6506 87.9887 41.0858C87.3664 42.7993 86.2369 46.8294 85.3753 48.8588C85.3275 48.9928 70.8727 47.0591 70.6813 46.9443C77.3726 39.8796 77.8321 41.44 78.9904 40.454ZM62.8604 65.2855C61.1469 64.0506 61.1182 61.9542 61.3479 59.8482C61.4202 58.8152 61.5965 57.7921 61.8744 56.7945C62.0454 55.9898 62.3955 55.234 62.8987 54.5832C63.1476 54.3056 63.5209 54.1908 63.7028 54.4684C63.7028 54.5641 63.9421 54.5354 63.9613 55.6745C63.9613 57.972 63.3678 58.7856 63.9613 58.8718C64.0666 58.8718 68.2307 57.187 68.9965 58.5463C69.3411 59.293 68.336 59.5993 67.2256 59.9631C65.1579 60.6427 64.8994 60.4896 64.9473 60.9203C64.9951 61.3511 65.5216 60.9203 67.35 61.1309C68.1254 61.2171 69.3315 61.6574 68.9008 62.318C68.671 62.787 66.6799 62.9785 66.029 63.055C65.0717 63.1699 64.8324 63.1029 64.8132 63.4571C64.7941 63.8113 65.2536 63.773 66.1343 63.8687C68.4796 64.1272 68.47 64.625 68.5083 64.7207C68.738 66.0704 64.3059 66.3385 62.8604 65.2855ZM98.5186 178.683C93.4131 179.416 88.232 179.455 83.1162 178.798C72.8926 177.621 65.0143 173.916 62.3435 164.075C58.2464 149.018 62.4871 85.8667 63.6932 65.9747C65.2632 66.4821 67.6851 66.4533 68.6615 65.6109C68.8329 65.4807 68.9554 65.2965 69.0093 65.0881C69.0631 64.8797 69.0451 64.6592 68.9582 64.4622C68.8129 64.237 68.622 64.0448 68.3977 63.898C68.1735 63.7513 67.9209 63.6532 67.6563 63.6103C67.015 63.438 67.4266 63.6103 68.6136 63.2944C70.0878 62.8923 70.1644 61.1118 68.1158 60.614C67.5893 60.4896 67.551 60.614 67.8956 60.4513C68.7093 60.1641 69.7432 59.8003 69.8102 58.9292C69.825 58.6989 69.7789 58.4688 69.6764 58.2621C69.5738 58.0553 69.4186 57.8793 69.2262 57.7518C68.1158 56.9285 65.7418 57.5699 64.4399 58.0198C64.4399 57.6273 64.8611 55.5405 64.4399 54.4109C64.6697 50.3234 64.775 47.5952 64.7079 46.7528C98.5952 51.3764 97.456 51.1467 97.255 51.1467C97.255 53.3292 97.1018 56.7562 96.9295 61.0927C95.7808 60.3268 93.6078 59.0728 92.3729 59.695C92.1593 59.7962 91.9772 59.9536 91.8462 60.1504C91.7153 60.3472 91.6403 60.576 91.6295 60.8121C91.6187 61.0482 91.6724 61.2829 91.7848 61.4908C91.8972 61.6988 92.0641 61.8722 92.2676 61.9925C93.2249 62.8732 93.5791 62.7679 93.0239 62.7296C91.3678 62.6147 90.7169 63.5145 90.9562 64.3665C91.0518 64.588 91.1921 64.7873 91.3684 64.9521C91.5446 65.1168 91.753 65.2433 91.9805 65.3238C93.2441 65.9651 93.0526 65.6109 91.9805 65.745C90.6403 65.9077 90.2574 67.133 91.7029 68.052C92.4315 68.499 93.2423 68.7954 94.0874 68.9236C94.9325 69.0519 95.7948 69.0094 96.6232 68.7986C96.6232 68.8944 95.3309 88.4513 94.8618 114.546C94.1535 137.703 93.9046 158.581 95.6659 160.974C96.47 166.88 102.367 175.333 108.915 176.568C105.522 177.592 102.042 178.3 98.5186 178.683ZM174.822 174.146C170.878 171.753 167.576 170.202 162.703 170.317C152.729 170.661 149.014 178.932 136.647 176.912C127.466 175.438 125.734 172.011 117.195 173.935C114.38 174.567 112.332 175.448 109.594 176.319C103.851 175.295 97.59 167.206 96.1063 161.261C96.1063 161.261 104.463 156.551 106.77 155.517C116.419 151.411 118.688 155.326 128.136 158.293C136.273 160.859 138.944 159.452 146.018 156.235C150.067 154.388 153.207 153.421 157.668 154.12C159.924 154.462 162.108 155.177 164.13 156.235C176.076 175.898 175.33 174.462 174.822 174.146ZM34.4679 16.1873C32.63 20.1791 32.2566 26.2099 34.3147 29.79C35.1286 31.1658 36.1747 32.3901 37.4067 33.4085C39.2849 34.7697 41.4364 35.7067 43.7123 36.1546C45.9883 36.6025 48.3343 36.5507 50.5883 36.0027C53.4444 35.1886 56.0169 33.594 58.0167 31.3982C59.1848 30.1787 60.0525 28.7036 60.551 27.0901C61.0495 25.4766 61.1651 23.7691 60.8885 22.1032C60.1035 15.9767 55.2119 9.44813 46.7783 9.41942C41.6474 9.40027 36.6888 11.5063 34.4679 16.1873ZM56.7722 31.7333C52.7517 35.3709 48.2908 36.7015 42.7865 35.2273C41.4372 34.9084 40.1454 34.382 38.9575 33.667C37.0066 32.465 35.4547 30.7132 34.4966 28.6318C32.5055 24.1422 33.6542 17.1446 36.7941 13.6888C44.1171 5.62864 59.6344 10.2044 60.4194 22.1511C60.7449 26.88 59.1462 29.5986 56.7722 31.7333Z" fill="#0F172A"/>
<path fill-rule="evenodd" clip-rule="evenodd" d="M36.3059 10.2618C33.8549 12.1176 32.1121 14.7556 31.3664 17.738C28.6573 26.5832 32.1226 33.7531 38.3066 36.7015C42.6898 38.8254 47.7162 39.2052 52.3688 37.7641C56.0351 36.4718 60.1609 33.4085 61.9415 30.1059C64.7367 24.8505 64.0187 16.3979 57.6338 10.6639C53.058 6.61462 43.5907 5.03513 36.3059 10.2618ZM58.457 33.1596C53.8143 37.3141 48.4727 38.9032 42.0686 37.1993C39.8435 36.6709 37.7638 35.654 35.9804 34.2222C28.3223 27.7798 29.1072 10.3575 43.6385 7.98351C57.0403 5.77222 63.0806 16.7425 62.7839 24.4868C62.7188 26.1565 62.2994 27.7934 61.5534 29.2886C60.8074 30.7839 59.7519 32.1034 58.457 33.1596Z" fill="#0F172A"/>
</svg>
