<svg width="177" height="180" viewBox="0 0 177 180" fill="none" xmlns="http://www.w3.org/2000/svg">
<path d="M99.7924 138.675C99.7197 138.695 99.6578 138.743 99.6206 138.809C99.5833 138.875 99.5737 138.952 99.5937 139.025C99.6138 139.098 99.662 139.16 99.7276 139.197C99.7933 139.234 99.8711 139.244 99.9438 139.224C102.335 138.7 104.577 137.642 106.501 136.13C113.815 130.727 113.437 123.063 117.6 116.051C120.93 110.705 123.854 111.32 123.627 110.63C123.619 110.602 123.605 110.577 123.586 110.555C123.567 110.534 123.544 110.516 123.519 110.504C123.493 110.491 123.465 110.484 123.436 110.483C123.408 110.482 123.379 110.487 123.353 110.497C110.257 115.313 117.657 132.487 99.7924 138.675ZM152.789 121.852C153.158 121.464 153.527 121.057 153.886 120.65C156.668 117.272 158.617 112.04 158.428 108.189C158.423 108.147 158.407 108.108 158.381 108.075C158.356 108.042 158.321 108.017 158.282 108.002C158.243 107.987 158.201 107.984 158.16 107.992C158.119 107.999 158.08 108.018 158.05 108.047C157.766 108.321 158.561 109.835 156.564 114.604C154.672 119.127 153.016 120.281 151.152 122.391C149.482 124.319 148.213 126.56 147.418 128.984C146.624 131.408 146.32 133.966 146.525 136.508C146.536 136.562 146.565 136.61 146.607 136.644C146.649 136.679 146.702 136.698 146.757 136.698C146.811 136.698 146.864 136.679 146.906 136.644C146.949 136.61 146.978 136.562 146.989 136.508C146.924 133.801 147.404 131.109 148.4 128.591C149.397 126.073 150.889 123.781 152.789 121.852ZM69.7129 80.9949C70.6591 80.342 70.5929 78.3456 69.7129 77.6075C69.4641 77.4067 69.174 77.2631 68.8634 77.1871C68.5528 77.1111 68.2292 77.1045 67.9158 77.1677C67.6023 77.2309 67.3066 77.3625 67.0497 77.553C66.7929 77.7435 66.5812 77.9882 66.4296 78.2699C66.254 78.7101 66.2224 79.1946 66.3393 79.6539C66.4562 80.1132 66.7156 80.5237 67.0803 80.8264C67.445 81.129 67.8962 81.3084 68.3692 81.3387C68.8422 81.369 69.3126 81.2486 69.7129 80.9949ZM67.1109 78.8281C67.3948 77.7495 69.2588 77.5981 69.5426 78.6767C69.7319 79.4148 69.6467 79.9352 69.2682 80.219C69.0407 80.3605 68.782 80.4439 68.5148 80.4621C68.2475 80.4802 67.9799 80.4325 67.7354 80.3231C67.4794 80.1794 67.2788 79.9541 67.1656 79.6832C67.0524 79.4123 67.0332 79.1113 67.1109 78.8281ZM102.044 63.4903C102.008 63.4877 101.972 63.4926 101.937 63.5047C101.903 63.5169 101.871 63.536 101.845 63.5609C101.818 63.5857 101.797 63.6158 101.782 63.6493C101.768 63.6827 101.76 63.7188 101.761 63.7552C101.761 64.7014 100.161 65.6476 99.8681 65.7422C99.8117 65.756 99.763 65.7917 99.7328 65.8414C99.7027 65.8911 99.6935 65.9507 99.7073 66.0072C99.7211 66.0636 99.7567 66.1123 99.8064 66.1425C99.8561 66.1726 99.9158 66.1818 99.9722 66.168C102.461 65.6571 102.839 63.4714 102.044 63.4903ZM98.7232 62.0426C98.6097 61.9764 98.1082 61.6074 97.9284 61.4654C97.9284 61.3424 98.3731 59.7623 98.4583 59.4595C98.5435 59.1567 98.1555 59.081 98.0514 59.327C97.6556 60.0941 97.3386 60.8993 97.1052 61.7304C97.1809 62.0048 98.4962 62.3643 98.5908 62.3643C98.6302 62.3697 98.6703 62.3618 98.7047 62.342C98.7392 62.3221 98.7661 62.2914 98.7813 62.2546C98.7964 62.2178 98.7989 62.1771 98.7884 62.1387C98.7779 62.1003 98.755 62.0666 98.7232 62.0426ZM95.6008 56.971C95.5872 56.8892 95.545 56.8149 95.4818 56.7613C95.4186 56.7077 95.3383 56.6783 95.2554 56.6783C95.1725 56.6783 95.0923 56.7077 95.0291 56.7613C94.9658 56.8149 94.9237 56.8892 94.9101 56.971C94.874 57.6234 94.874 58.2772 94.9101 58.9296C94.9694 59.0266 95.0593 59.1011 95.1657 59.1412C95.272 59.1813 95.3887 59.1848 95.4973 59.1512C95.6059 59.1175 95.7002 59.0486 95.7652 58.9554C95.8302 58.8621 95.8622 58.7498 95.8563 58.6363C95.7252 58.0892 95.6398 57.5322 95.6008 56.971ZM102.215 58.6268C102.093 58.0843 102.008 57.5343 101.959 56.9805C101.959 56.8876 101.922 56.7986 101.857 56.7329C101.791 56.6673 101.702 56.6304 101.609 56.6304C101.516 56.6304 101.427 56.6673 101.362 56.7329C101.296 56.7986 101.259 56.8876 101.259 56.9805C101.225 57.6108 101.225 58.2425 101.259 58.8728C101.264 58.9461 101.286 59.0173 101.322 59.0814C101.357 59.1455 101.407 59.201 101.466 59.2438C101.526 59.2867 101.594 59.316 101.667 59.3295C101.739 59.3431 101.813 59.3406 101.884 59.3223C101.955 59.304 102.022 59.2703 102.078 59.2236C102.135 59.1768 102.181 59.1182 102.212 59.0519C102.244 58.9855 102.26 58.9131 102.261 58.8396C102.261 58.7662 102.245 58.6936 102.215 58.6268Z" fill="#0F172A"/>
<path d="M176.264 45.7398C176.198 39.8451 174.22 37.5174 168.117 37.6972C166.376 37.6972 135.331 38.0094 133.108 38.0851C131.617 38.0855 130.142 38.3914 128.774 38.984C127.989 39.2963 123.882 41.3495 123.428 42.4376C122.936 43.2135 123.513 65.3166 123.428 69.8773C122.771 69.5029 122.095 69.1619 121.403 68.8554C121.278 68.2339 121.013 67.6491 120.628 67.1457C120.242 66.6423 119.747 66.2335 119.18 65.9506C118.309 65.61 117.193 66.0168 116.549 65.4018C115.906 64.7868 117.06 64.4556 117.183 63.5094C117.18 62.8533 117.104 62.1996 116.956 61.5602C116.386 58.1303 115.589 54.7418 114.572 51.417C113.72 48.6825 112.831 46.3643 110.38 44.8788C110.38 40.2803 109.917 13.3327 109.661 11.9039C109.409 10.4938 108.657 9.22189 107.543 8.32158C106.429 7.42126 105.028 6.95295 103.596 7.0026C103.501 7.0026 38.3844 7.0026 38.3087 7.0783C35.7067 8.63006 35.0065 12.0931 34.8362 14.6479C34.7794 15.9252 35.896 41.7185 36.3407 49.9126C31.7327 50.0072 8.45634 50.6317 7.1222 51.3413C4.10385 52.0794 0.763783 54.1799 0.11091 57.5957C-0.295953 59.7909 0.527235 101.963 0.801631 103.959C0.998141 106.116 1.96169 108.13 3.51721 109.636C5.21089 111.122 7.51961 111.396 9.55392 111.472L52.7287 110.658C48.5087 120.215 43.6453 133.764 40.4282 142.195C40.4131 142.219 40.4051 142.247 40.4051 142.275C40.4051 142.304 40.4131 142.332 40.4282 142.356C41.2989 143.211 42.2494 143.981 43.2668 144.655C41.7245 149.925 41.8948 150.219 41.5542 150.645C38.6305 154.231 35.1012 156.322 31.6192 156.662C30.0012 156.842 28.4021 157.126 27.8344 158.697C27.3707 160.125 28.6008 161.081 30.039 161.478C30.9852 161.734 37.4382 163.163 38.3939 163.276C39.2407 163.418 40.1096 163.225 40.8162 162.737C41.4974 162.235 43.7399 159.586 44.6009 158.791C43.0397 166.361 41.9516 163.948 45.6701 165.566C45.7221 165.594 45.7795 165.61 45.8383 165.612C45.897 165.615 45.9557 165.605 46.01 165.582C46.0643 165.56 46.113 165.525 46.1524 165.481C46.1918 165.438 46.221 165.386 46.2379 165.33C46.9002 163.437 51.3851 152.622 53.2113 149.812C53.656 161.242 53.5803 160.646 53.7412 160.693C54.3751 160.854 55.0658 161.005 55.7755 161.147C55.7755 162.737 55.8228 164.364 55.9553 166.143C55.9553 166.2 55.8796 166.295 55.8039 166.446C53.4573 171.593 50.8269 173.694 47.9694 174.962C46.7015 175.529 44.951 176.305 44.9983 178.056C44.9983 179.57 46.5501 180.052 48.0545 179.996C50.3159 179.92 53.2397 179.617 54.5644 179.551C58.3491 179.324 58.4437 178.605 60.0523 175.359C60.4213 174.612 60.8565 173.722 61.1026 173.287C61.5473 178.605 60.9606 179.39 61.6892 179.352C63.6667 179.248 64.5278 179.787 64.5278 179.078C64.6035 177.129 65.474 169.464 65.9281 167.581C65.9281 167.364 65.7767 167.241 65.5497 167.193C65.8335 165.434 66.4959 161.971 66.581 161.337C67.0541 161.27 67.5272 161.195 67.8962 161.109C68.0003 161.109 67.8962 161.611 69.4953 155.016C80.9821 159.548 93.2353 160.636 104.23 158.053C104.618 159.558 107.428 169.814 108.961 174.309C109.483 175.777 110.179 177.178 111.033 178.482C111.251 178.69 111.62 179.059 111.979 179.059C112.339 179.059 112.736 178.557 112.831 178.046C112.926 177.535 111.44 162.614 110.939 157.23C113.187 156.673 115.367 155.87 117.439 154.836L120.505 165.017C120.594 165.169 120.729 165.289 120.891 165.36C121.052 165.43 121.232 165.449 121.404 165.412C121.577 165.376 121.733 165.286 121.852 165.156C121.971 165.025 122.045 164.861 122.066 164.686L121.772 152.49C123.205 151.556 124.577 150.532 125.879 149.424C126.47 149.996 127.135 150.486 127.857 150.881C127.931 150.922 128.018 150.932 128.099 150.909C128.181 150.886 128.25 150.832 128.292 150.758C129.079 149.568 129.962 148.445 130.932 147.399C130.742 148.62 130.373 151.118 130.326 151.894C130.325 151.944 130.334 151.993 130.352 152.04C130.371 152.086 130.399 152.129 130.434 152.164C130.469 152.199 130.512 152.227 130.558 152.246C130.605 152.264 130.655 152.273 130.705 152.272C131.709 152.241 132.713 152.372 133.676 152.66C130.591 154.145 129.181 155.404 129.37 156.445C129.74 158.303 130.259 160.129 130.922 161.904C131.433 163.38 131.963 164.913 133.553 165.557C140.838 168.641 151.663 166.389 158.977 163.314C165.184 160.882 166.092 156.946 165.543 151.383C165.43 150.323 164.2 150.2 161.617 150.266L167.909 142.309C169.801 140.047 168.155 140.123 167.559 135.685C168.129 136.53 168.813 137.291 169.593 137.947C169.639 137.983 169.693 138.009 169.75 138.024C169.807 138.039 169.866 138.041 169.924 138.032C170.18 137.984 169.981 138.117 172.328 133.897C172.372 133.82 172.389 133.73 172.375 133.642C172.361 133.554 172.318 133.474 172.252 133.414C171.221 132.563 168.732 130.576 168.732 130.576C170.015 130.272 171.279 129.893 172.517 129.44C172.812 129.364 173.079 129.205 173.287 128.982C173.495 128.759 173.635 128.482 173.69 128.182C173.813 127.444 173.823 112.579 173.842 110.554C173.842 110.223 173.312 110.128 173.255 110.488C172.148 117.991 167.067 124.236 160.576 126.1C160.784 125.258 161.314 123.432 161.021 122.93C159.95 122.257 158.812 121.699 157.624 121.265C158.807 120.593 161.541 118.843 161.74 118.304C161.863 117.991 161.257 103.392 161.229 101.792C161.224 101.727 161.199 101.664 161.156 101.613C161.114 101.563 161.056 101.527 160.992 101.511C160.928 101.496 160.86 101.501 160.799 101.526C160.738 101.551 160.686 101.594 160.652 101.651C158.82 105.268 156.11 108.368 152.77 110.668C152.382 110.933 149.591 112.418 149.373 112.617C148.673 113.289 149.543 114.112 149.912 114.632C150.177 114.992 151.086 116.212 151.265 116.468C147.935 116.875 147.055 115.73 146.884 116.468C146.557 117.432 146.116 118.353 145.569 119.212C145.764 120.041 146.014 120.857 146.317 121.653C145.762 121.744 145.197 121.744 144.642 121.653C144.543 121.632 144.44 121.648 144.352 121.699C144.265 121.75 144.2 121.831 144.169 121.928C143.904 122.789 143.696 123.508 143.507 124.179C142.36 122.234 141.096 120.361 139.722 118.569C139.05 113.44 136.628 107.451 131.509 106.656C135.36 105.047 137.886 100.913 138.492 96.7209C140.308 96.7209 166.556 96.6452 167.616 96.7209C173.359 96.8817 175.923 94.6865 176.462 88.8296C176.68 86.4925 176.264 46.1656 176.264 45.7398ZM45.6039 158.394C45.6278 158.294 45.6127 158.188 45.5618 158.099C45.5109 158.009 45.4278 157.942 45.3295 157.911C44.5631 157.627 43.9764 158.299 43.5507 158.782C42.4728 160.094 41.2892 161.315 40.0119 162.434C39.3022 162.775 31.042 161.062 30.0106 160.74C29.4555 160.615 28.9725 160.275 28.667 159.794C28.5475 159.445 28.5606 159.064 28.7036 158.724C28.8467 158.384 29.1098 158.108 29.4429 157.949C30.1715 157.504 30.7108 157.542 32.7546 157.164C34.7984 156.785 36.8232 156.416 40.3809 153.067C40.8766 152.592 41.3382 152.083 41.7624 151.543C42.3531 152.857 43.3475 153.947 44.6009 154.656C46.2801 155.402 48.1554 155.585 49.9469 155.177C49.0007 157.069 46.3892 162.983 45.7364 164.79C45.216 164.582 44.6861 164.393 44.1657 164.241C44.7517 162.32 45.2319 160.368 45.6039 158.394ZM128.699 106.58C127.368 106.637 126.046 106.827 124.753 107.148C120.515 107.627 116.254 107.873 111.989 107.886C111.364 104.101 111.554 104.801 111.393 103.751C111.327 103.297 111.232 102.672 111.563 102.474C116.095 100.449 120.807 98.6133 125.321 96.6357C126.267 97.3264 126.343 97.2413 126.428 97.1845C126.468 97.1408 126.491 97.0833 126.491 97.0237C126.491 96.964 126.468 96.9065 126.428 96.8628C126.058 96.4896 125.67 96.1359 125.264 95.8031C121.632 92.5547 119.101 88.2553 118.026 83.5025C118.013 83.4461 117.979 83.3969 117.93 83.3658C117.881 83.3348 117.822 83.3244 117.765 83.3369C117.709 83.3495 117.66 83.3839 117.629 83.4327C117.598 83.4815 117.587 83.5407 117.6 83.5971C118.401 88.5397 120.958 93.0277 124.8 96.2383L111.752 101.632C111.375 101.742 111.043 101.971 110.806 102.285C110.153 102.107 109.563 101.75 109.103 101.253C106.643 99.2756 105.659 100.629 102.48 103.146C102.172 103.377 101.881 103.63 101.609 103.902C99.9285 102.408 98.2537 100.906 96.5848 99.3986C96.159 98.7741 92.2796 85.3949 90.69 80.0205C91.9188 77.0412 93.9013 74.4326 96.4429 72.451C96.7367 73.3484 97.1071 74.2189 97.5499 75.053C98.2596 75.7343 99.1774 75.4031 100.067 75.1855C99.8217 75.694 99.6804 76.2462 99.6512 76.81C99.6219 77.3737 99.7053 77.9376 99.8965 78.4688C100.566 79.9707 101.613 81.2743 102.934 82.2535C106.17 85.0921 106.009 85.0164 106.198 85.0164C106.285 85.0121 106.368 84.9761 106.431 84.9151C106.494 84.8542 106.532 84.7724 106.539 84.6853C106.86 81.383 107.92 80.4747 110.91 79.4244C112.545 78.8906 113.929 77.7773 114.8 76.2942C115.672 74.8111 115.971 73.0606 115.641 71.3723C117.619 71.3873 119.589 71.1326 121.498 70.6153C121.588 70.595 121.667 70.5398 121.716 70.4618C121.766 70.3838 121.783 70.2893 121.763 70.199C121.763 70.0382 121.697 69.8489 121.649 69.6502C135.454 76.3587 143.866 97.2602 132.729 105.028C131.518 105.84 130.141 106.37 128.699 106.58ZM131.878 107.659C134.31 108.179 136.344 110.223 137.669 113.819C143.989 130.897 129.257 151.591 110.967 156.397C110.853 155.253 110.229 148.61 110.106 148.118C110.015 147.684 109.765 147.299 109.406 147.04C108.242 146.396 106.245 147.106 105.186 147.73C104.175 148.401 103.273 149.221 102.508 150.162C102.508 150.465 103.833 156.17 104.117 157.334C92.6163 159.739 80.663 158.713 69.7413 154.382C71.4255 147.38 73.6585 137.795 74.283 134.824C80.7928 136.849 89.9425 136.66 90.0372 136.65C90.0674 136.642 90.0942 136.624 90.1133 136.6C90.1324 136.575 90.1427 136.544 90.1427 136.513C90.1427 136.482 90.1324 136.451 90.1133 136.427C90.0942 136.402 90.0674 136.384 90.0372 136.376C84.7858 134.625 80.2535 130.112 77.2825 123.659C72.7123 114.017 63.2315 114.131 59.5413 118.928C54.2048 125.854 53.3438 146.008 53.2586 148.44C52.9274 149.045 51.0256 152.764 50.3065 154.278C44.6293 155.631 43.0113 152.386 42.3206 150.995C42.2071 150.758 42.2638 151.383 44.0238 145.166C44.97 145.63 51.6974 148.005 51.7068 147.304C51.7825 139.262 53.7317 120.13 59.0115 115.73C62.7962 112.626 70.9808 113.166 74.6047 115.853C76.9086 117.956 78.7932 120.476 80.1589 123.281C83.1962 129.8 88.4286 134.635 94.2383 135.846C101.685 135.193 110.324 123.328 112.793 115.739C117.354 109.958 124.876 106.646 131.878 107.659ZM146.686 146.141C146.698 146.197 146.733 146.246 146.782 146.277C146.83 146.308 146.89 146.319 146.946 146.306C147.002 146.294 147.052 146.259 147.083 146.21C147.114 146.162 147.124 146.102 147.112 146.046C146.515 142.999 144.831 140.369 143.771 137.53C141.936 132.676 143.27 127.463 144.822 122.533C145.514 122.662 146.229 122.57 146.866 122.268C147.386 121.861 146.97 121.171 146.383 119.43C146.865 118.7 147.244 117.907 147.509 117.074C148.988 117.423 150.526 117.443 152.013 117.13C152.071 117.116 152.124 117.087 152.169 117.048C152.214 117.009 152.249 116.959 152.271 116.904C152.293 116.849 152.302 116.789 152.296 116.73C152.291 116.67 152.272 116.613 152.24 116.563C151.606 115.73 149.931 113.45 149.846 113.279C149.761 113.109 149.846 113.128 150.12 113.005C154.643 110.947 158.352 107.441 160.661 103.041C160.775 106.136 161.144 117.651 161.04 118.114C159.569 119.178 158.019 120.127 156.403 120.953C156.333 120.992 156.275 121.051 156.238 121.123C156.201 121.194 156.186 121.275 156.196 121.355C156.205 121.435 156.237 121.511 156.29 121.572C156.342 121.634 156.411 121.678 156.488 121.7C157.827 122.158 159.125 122.728 160.368 123.404C160.538 123.678 159.942 125.845 159.838 126.403L158.892 126.592C158.798 126.617 158.717 126.677 158.665 126.76C158.614 126.842 158.597 126.942 158.617 127.037C158.863 128.712 159.422 132.837 159.422 132.837C156.706 130.311 156.725 128.91 156.138 128.854C156.08 128.846 156.021 128.854 155.966 128.875C155.912 128.897 155.864 128.932 155.826 128.977C151.377 134.139 148.879 140.698 148.767 147.513C148.778 147.564 148.806 147.61 148.846 147.643C148.887 147.676 148.938 147.694 148.99 147.694C149.042 147.694 149.093 147.676 149.133 147.643C149.174 147.61 149.202 147.564 149.212 147.513C149.568 141.065 151.96 134.897 156.044 129.894C156.985 131.516 158.22 132.947 159.686 134.115C159.749 134.17 159.827 134.204 159.911 134.213C159.994 134.221 160.077 134.203 160.15 134.161C160.222 134.119 160.279 134.056 160.313 133.979C160.347 133.903 160.356 133.818 160.339 133.736C160.339 133.736 159.658 129.128 159.393 127.255C165.837 126.11 171.372 120.631 173.236 113.648C173.236 117.537 173.104 127.179 173.104 127.274C173.104 127.889 173.104 128.475 172.555 128.75C171.003 129.295 169.424 129.759 167.824 130.14C167.758 130.158 167.699 130.192 167.651 130.241C167.603 130.289 167.57 130.349 167.553 130.415C167.537 130.48 167.538 130.549 167.557 130.614C167.577 130.679 167.613 130.738 167.663 130.784C168.108 131.143 170.662 133.235 171.504 133.906C171.504 133.906 170.35 136.111 169.763 137.199C168.804 136.311 168.01 135.261 167.417 134.096C167.378 134.029 167.319 133.978 167.249 133.948C167.178 133.919 167.1 133.913 167.026 133.933C166.952 133.952 166.886 133.995 166.839 134.055C166.791 134.115 166.765 134.189 166.764 134.266C167.029 140.586 169.054 139.763 167.379 141.835C161.607 149.093 160.595 151.439 154.378 153.275C155.627 147.598 159.904 145.299 161.617 141.202C162.563 138.959 162.355 136.471 163.102 134.219C163.623 132.656 164.473 131.223 165.597 130.018C166.72 128.813 168.089 127.864 169.612 127.236C169.667 127.217 169.713 127.177 169.738 127.125C169.764 127.072 169.768 127.012 169.749 126.957C169.73 126.901 169.69 126.856 169.638 126.83C169.586 126.804 169.525 126.801 169.47 126.819C167.487 127.519 165.737 128.755 164.416 130.391C163.095 132.027 162.253 133.997 161.986 136.083C161.579 138.987 161.664 140.416 159.847 142.961C157.841 145.753 154.558 148.222 153.498 153.512C151.853 153.921 150.169 154.156 148.474 154.212C148.275 152.518 147.235 151.525 146.497 151.487C145.815 150.294 138.634 139.366 135.984 136.972C138.914 131.7 140.261 125.694 139.864 119.676C140.999 121.35 142.939 124.492 143.279 125.107C139.977 137.843 145.371 139.754 146.686 146.141ZM131.764 146.557C131.764 146.49 131.745 146.425 131.708 146.369C131.672 146.313 131.621 146.268 131.56 146.24C131.5 146.212 131.432 146.203 131.366 146.212C131.3 146.221 131.238 146.249 131.187 146.292C129.977 147.493 128.878 148.801 127.904 150.2C127.347 149.875 126.824 149.494 126.343 149.064C128.629 147.077 130.703 144.857 132.531 142.441C142.579 154.496 142.097 154.145 142.381 153.918C142.403 153.903 142.422 153.884 142.436 153.861C142.451 153.839 142.461 153.813 142.465 153.787C142.469 153.76 142.468 153.733 142.462 153.707C142.456 153.681 142.444 153.656 142.428 153.635C141.766 152.632 135.019 144.173 132.966 141.798C133.941 140.45 134.832 139.044 135.634 137.587C139.419 141.287 145.295 151.023 145.844 151.941C145.321 152.692 145.077 153.602 145.153 154.514C143.958 154.848 142.702 154.903 141.482 154.675C140.034 154.391 134.622 151.733 131.074 151.629C131.301 150.597 131.66 147.446 131.793 146.557H131.764ZM106.993 147.759H107.154C107.892 147.588 109.046 147.333 109.321 148.08C109.463 148.591 112.32 176.816 112.32 177.687C112.335 177.824 112.32 177.963 112.276 178.094C112.232 178.224 112.16 178.344 112.065 178.444C109.604 177.498 103.549 152.395 103.312 150.266C104.266 149.086 105.546 148.214 106.993 147.759ZM6.24225 103.079C6.24225 100.913 4.80403 57.9552 4.94596 56.4035C5.19197 53.4797 6.24225 52.1645 8.56042 51.8617C11.0111 51.3886 33.89 50.7358 36.388 50.6695C36.4447 51.6157 36.4921 52.2781 36.511 52.4011C36.6159 53.1455 36.9709 53.8321 37.5177 54.3479C38.0646 54.8638 38.7706 55.1783 39.5199 55.2397C39.5199 55.145 38.8954 55.2397 58.4437 55.3059C58.4437 58.258 58.6235 72.1292 58.633 72.7821C53.0694 72.9903 47.3354 73.2174 46.2379 73.3215C46.0865 73.3215 45.954 73.5958 46.0108 73.7283C47.6571 77.797 54.9901 94.3175 57.0434 98.5565C57.2349 99.0382 57.564 99.4528 57.9896 99.7487C58.2545 100.146 58.5668 100.591 58.9358 101.036C55.9363 103.429 54.8577 106.079 53.1167 109.958C45.1024 110.128 12.6196 110.8 11.891 110.772C9.86617 110.687 8.43741 110.1 7.54799 108.984C6.19493 107.375 6.25171 105.18 6.24225 103.079ZM115.707 65.2882C115.906 66.0074 116.654 66.3953 117.808 66.4237C119.795 66.3385 120.647 68.0511 121.006 70.0192C119.072 70.3973 117.11 70.6156 115.14 70.6721C115.083 70.6727 115.027 70.6865 114.976 70.7125C114.925 70.7384 114.881 70.7758 114.847 70.8216C114.813 70.8674 114.79 70.9205 114.78 70.9767C114.77 71.0328 114.773 71.0905 114.79 71.1452C115.092 72.2253 115.095 73.3672 114.798 74.4489C114.501 75.5305 113.916 76.5112 113.105 77.286C110.56 79.7367 106.482 78.3836 105.886 84.0324C105.034 83.2944 101.883 80.6166 101.24 79.8313C100.133 78.5539 99.6883 76.4344 100.824 75.1003C103.255 74.7029 105.712 74.4847 108.176 74.4474C108.231 74.4474 108.284 74.4255 108.323 74.3865C108.362 74.3474 108.384 74.2945 108.384 74.2393C108.384 74.1841 108.362 74.1311 108.323 74.0921C108.284 74.053 108.231 74.0311 108.176 74.0311C105.342 73.8301 102.493 74.034 99.7167 74.6367C98.657 74.93 98.1366 75.1381 97.6635 74.1446C97.4269 73.6432 96.0171 69.3474 95.7711 68.5526C95.3358 67.5213 95.6008 67.8335 96.3956 67.3415C97.1743 67.9996 98.0485 68.5356 98.9881 68.9311C98.9881 69.0447 99.4802 70.5491 99.5559 70.8235C99.588 71.0508 99.7017 71.2588 99.8758 71.4085C100.05 71.5582 100.272 71.6395 100.502 71.6372C102.709 71.8399 104.932 71.5169 106.989 70.6945C109.047 69.8722 110.88 68.5739 112.339 66.9062C112.368 66.8666 112.381 66.8176 112.376 66.7687C112.371 66.7198 112.348 66.6746 112.312 66.6416C112.275 66.6087 112.228 66.5904 112.179 66.5904C112.13 66.5903 112.082 66.6085 112.046 66.6413C110.58 68.1225 108.82 69.2788 106.878 70.0352C104.937 70.7916 102.858 71.1311 100.776 71.0317C100.114 70.9844 100.199 71.1263 99.641 69.1393C102.196 69.8584 102.839 68.8838 101.931 69.7827C101.901 69.8181 101.885 69.8626 101.884 69.9088C101.884 69.9549 101.9 69.9997 101.929 70.0355C101.958 70.0713 101.999 70.0959 102.044 70.105C102.089 70.1141 102.136 70.1072 102.177 70.0855C105.619 67.5122 108.129 63.8887 109.33 59.7625C109.339 59.7358 109.342 59.7076 109.339 59.6796C109.337 59.6516 109.329 59.6245 109.316 59.5997C109.302 59.575 109.284 59.5532 109.262 59.5356C109.24 59.518 109.215 59.5051 109.188 59.4975C108.696 59.3272 109.027 60.3018 106.719 64.0771C105.772 60.2923 106.406 56.2899 105.384 52.4862C105.371 52.4323 105.336 52.386 105.288 52.3576C105.24 52.3292 105.183 52.321 105.129 52.3348C105.075 52.3486 105.029 52.3833 105 52.4312C104.972 52.4791 104.964 52.5364 104.978 52.5903C105.143 53.3952 105.251 54.2111 105.299 55.0315C103.284 53.035 99.026 49.8463 95.667 50.5749C94.9434 50.5972 94.2576 50.9036 93.7582 51.4278C93.2588 51.952 92.986 52.6518 92.9987 53.3756C92.185 52.2781 92.7527 50.6033 93.4908 49.676C95.4399 47.1308 98.903 45.8912 102.357 44.945C105.413 44.1313 109.5 44.2449 111.819 47.0078C112.824 48.3866 113.551 49.9487 113.957 51.6063C115.166 55.3415 116.008 59.1854 116.474 63.0836C116.51 63.2408 116.502 63.4049 116.452 63.5582C116.402 63.7115 116.312 63.8484 116.19 63.9541C116.001 64.1158 115.857 64.3237 115.773 64.5575C115.688 64.7914 115.666 65.0431 115.707 65.2882ZM57.7341 98.3294C56.8447 96.437 48.0545 76.9454 46.6542 73.7283C49.7861 73.7283 85.1264 72.432 85.7414 72.4131C86.9431 76.2736 93.9449 99.5878 93.9449 99.7865C93.9449 99.7865 85.5806 99.9947 81.0672 100.174C73.4504 96.3329 66.4012 96.7493 61.2729 99.4648C58.3775 99.3418 58.245 99.3986 57.7341 98.3294ZM93.6895 59.0812C93.557 56.2426 93.6895 54.2651 94.1342 54.0664C95.7616 53.3283 98.7989 53.1202 102.177 54.1894C102.603 54.3313 103.965 55.041 105.337 55.6181C105.488 58.646 105.337 61.8536 106.283 64.7868C105.447 66.2534 104.373 67.5708 103.104 68.6851C97.3796 69.4421 93.9449 64.8625 93.6705 59.0812H93.6895ZM102.376 115.664C102.148 116.099 105.999 118.994 106.416 119.307C107.778 120.593 106.113 121.294 104.732 120.054C97.162 113.251 90.709 105.454 82.2973 100.799C87.1986 100.638 93.2637 100.458 94.3045 100.449C95.3548 101.461 107.551 112.882 110.702 115.588C101.902 115.654 102.461 115.512 102.357 115.664H102.376ZM111.667 115.531C111.573 115.446 95.5818 100.998 94.9668 100.279C94.6073 99.673 87.9744 77.163 86.4511 72.6307C87.3857 73.2681 88.0788 74.2012 88.4192 75.2801C88.9869 76.8981 95.4305 98.4713 95.4588 98.5754C95.5361 99.0993 95.7704 99.5876 96.1306 99.9758C98.6191 102.37 109.179 111.945 112.613 114.784C112.415 115.03 112.216 115.276 112.027 115.531H111.667ZM110.976 106.438C109.33 106.306 108.81 106.117 108.403 106.618C108.27 106.826 107.892 107.29 107.409 107.186C107.326 107.166 107.247 107.13 107.178 107.078C107.109 107.027 107.051 106.962 107.009 106.887C106.966 106.813 106.939 106.73 106.93 106.645C106.921 106.559 106.929 106.473 106.955 106.391C107.419 105.956 107.901 105.577 108.337 105.114C108.36 105.081 108.371 105.041 108.37 105.001C108.368 104.961 108.353 104.923 108.327 104.892C108.3 104.862 108.265 104.841 108.226 104.833C108.186 104.825 108.145 104.831 108.109 104.849C107.627 105.161 107.163 105.662 106.614 105.994C106.569 105.994 106.525 106.005 106.484 106.024C106.443 106.044 106.407 106.072 106.378 106.107C106.265 106.153 106.142 106.172 106.02 106.163C105.898 106.154 105.78 106.117 105.675 106.055C105.569 105.993 105.48 105.907 105.413 105.804C105.346 105.702 105.304 105.585 105.29 105.464C105.29 104.707 106.104 104.205 106.577 103.647C106.766 103.458 106.482 103.174 106.283 103.354C105.776 103.782 105.305 104.25 104.873 104.754C104.328 104.927 103.772 105.063 103.208 105.161C102.953 105.161 103.208 105.322 102.092 104.366C103.256 103.274 104.523 102.298 105.876 101.452C108.176 99.9379 108.601 102.559 110.674 102.862C110.672 104.06 110.773 105.257 110.976 106.438ZM113.105 114.235L103.577 105.719C103.923 105.651 104.264 105.563 104.599 105.454C104.591 105.66 104.632 105.864 104.717 106.051C104.802 106.239 104.929 106.403 105.089 106.533C105.249 106.662 105.436 106.753 105.637 106.797C105.838 106.841 106.046 106.838 106.245 106.788C106.283 106.989 106.368 107.178 106.493 107.34C106.617 107.501 106.779 107.631 106.963 107.719C107.148 107.807 107.35 107.849 107.554 107.844C107.758 107.838 107.958 107.785 108.138 107.687C109.444 107.091 108.138 106.864 110.248 107.053C110.522 107.053 110.816 107.11 111.099 107.12C111.185 107.564 111.27 107.971 111.364 108.359C111.387 108.436 111.435 108.504 111.5 108.552C111.564 108.6 111.643 108.625 111.724 108.624C128.642 108.264 120.334 105.927 113.086 114.235H113.105ZM90.3967 78.9986C89.3275 75.4125 88.7693 72.5172 86.6119 71.7792C86.6119 71.8927 87.4162 71.6561 59.4089 72.7253C59.4089 68.1174 59.2102 56.9712 59.1818 55.2775H93.1028C92.8379 59.3745 93.1028 63.7933 95.9414 66.84C95.6008 66.9725 94.9952 67.2563 94.8533 67.4929C95.2022 69.0221 95.6704 70.5217 96.2536 71.9779C93.715 73.7694 91.6841 76.1883 90.3589 78.9986H90.3967ZM86.5079 49.7517C86.5079 48.427 86.2051 41.3022 86.1388 39.9964H88.5516C88.5516 41.34 88.7314 48.4365 88.7882 49.7423C88.0312 49.7233 87.2648 49.7328 86.5079 49.7517ZM72.6461 50.0356C72.6556 47.4619 72.3244 25.6994 72.2771 22.8608H74.6899C74.6899 30.0519 74.8981 48.0391 74.9359 49.9977L72.6461 50.0356ZM57.7152 26.5132H60.1374C60.1374 32.7297 60.3361 48.427 60.3834 50.291H58.0937C58.1031 47.9634 57.7719 29.1057 57.7152 26.5132ZM37.1733 51.9847C37.0408 51.1805 35.9433 25.9833 35.4986 16.3321C35.3945 13.361 36.1798 9.70872 38.1763 8.01503C38.1763 14.6384 39.0279 51.1899 39.2171 54.5016C38.6602 54.3409 38.1659 54.0136 37.8005 53.5637C37.4352 53.1137 37.2163 52.5627 37.1733 51.9847ZM123.987 44.1219C123.909 43.5042 124.057 42.8792 124.403 42.3619C125.144 41.7788 125.939 41.2686 126.778 40.8386C125.832 42.5417 126.078 42.0686 126.579 71.9684C125.799 71.3735 124.987 70.8208 124.147 70.3125C124.053 65.5437 124.006 48.2094 124.015 44.1219H123.987ZM132.256 54.6341C132.696 54.01 133.28 53.5016 133.959 53.1523C134.638 52.803 135.391 52.6232 136.155 52.6282C140.006 52.6282 141.406 57.2077 142.163 60.9357C142.825 63.8595 142.873 67.3036 145.002 69.6881C154.899 78.658 155.646 66.1398 161.664 66.6224C163.556 66.84 164.815 68.5715 166.168 69.8205C166.746 70.4702 167.558 70.8654 168.426 70.9203C169.294 70.9753 170.149 70.6854 170.804 70.1138V83.5593C168.477 83.5593 138.918 83.3417 135.672 83.3795C134.882 81.7258 133.951 80.143 132.89 78.6485C133.004 77.5036 132.304 55.656 132.285 54.6341H132.256ZM136.041 84.0229C140.394 84.0892 168.013 84.1649 170.88 84.1649C170.884 84.5253 170.906 84.8853 170.946 85.2435C170.953 85.3197 170.988 85.3907 171.044 85.443C171.099 85.4954 171.172 85.5254 171.249 85.5274C171.807 85.5274 171.552 86.3884 171.457 60.7276C171.457 60.6648 171.432 60.6047 171.388 60.5603C171.343 60.516 171.283 60.491 171.221 60.491C171.158 60.491 171.098 60.516 171.053 60.5603C171.009 60.6047 170.984 60.6648 170.984 60.7276C170.984 62.4118 170.88 67.9754 170.87 69.073C170.653 69.415 170.358 69.7008 170.009 69.9067C169.661 70.1127 169.268 70.2331 168.863 70.258C168.459 70.2829 168.055 70.2117 167.683 70.0501C167.312 69.8886 166.984 69.6413 166.726 69.3285C163.992 66.4899 161.286 64.1244 157.33 67.7767C154.094 71.1168 152.316 73.9365 147.869 71.0506C146.068 70.0911 144.711 68.4693 144.084 66.5278C142.589 61.1628 143.005 52.8836 136.684 51.786C135.839 51.6997 134.986 51.8218 134.199 52.1419C133.412 52.4619 132.716 52.97 132.171 53.6217C132.171 52.1834 132.067 50.7831 132.01 49.3259C132.01 49.2657 131.986 49.2079 131.944 49.1654C131.901 49.1228 131.843 49.0988 131.783 49.0988C131.723 49.0988 131.665 49.1228 131.623 49.1654C131.58 49.2079 131.556 49.2657 131.556 49.3259C131.556 50.8966 132.048 72.8294 132.2 77.6456C130.741 75.7374 129.065 74.0066 127.204 72.4888C127.204 68.8838 126.882 45.4749 126.844 44.0272C126.787 41.3968 127.838 39.8734 130.26 39.2395C132.247 38.6907 167.975 38.1419 171.372 38.6055C173.624 38.8894 174.911 41.094 175.232 43.0053C175.63 45.3803 175.743 84.6379 175.753 85.1584C175.829 89.7947 175.28 95.0839 170.454 95.7368C169.366 95.8882 142.447 95.9544 138.539 95.9166C138.66 91.8122 137.811 87.7372 136.06 84.0229H136.041ZM108.337 10.3711C109.472 12.3581 108.829 11.8093 109.633 44.4909C105.716 42.7215 100.171 44.3489 96.3861 46.3833V18.3475C96.3861 18.1299 96.8781 18.1961 93.5475 18.1961C93.3394 18.1961 93.3583 16.2469 94.0585 47.9539C93.4907 48.4665 92.997 49.0556 92.5919 49.7044H89.4127C89.4127 48.4744 89.0531 39.7504 89.0153 39.6747C89.0043 39.6255 88.9766 39.5817 88.937 39.5506C88.8973 39.5195 88.848 39.5032 88.7976 39.5044C87.7753 39.4701 86.7519 39.4922 85.732 39.5707C85.7017 39.5913 85.6778 39.6199 85.6627 39.6533C85.6477 39.6867 85.6422 39.7236 85.6468 39.7599C85.6468 40.7061 85.8171 48.3892 85.8834 49.7517L82.3162 49.8274C82.496 33.6664 82.5622 34.518 82.3162 34.499C79.752 34.6031 79.6953 34.5558 79.6953 34.7451V49.8842L75.532 49.9693C75.532 47.8593 75.2103 24.0152 75.1441 22.6338C75.1469 22.5715 75.126 22.5106 75.0856 22.4631C75.0452 22.4157 74.9883 22.3854 74.9264 22.3783C74.9264 22.3783 71.9649 22.3783 71.8702 22.4729C71.5958 22.6905 72.0216 48.9664 72.0216 50.045L67.5272 50.1302V36.0035C67.4938 35.9903 67.4566 35.9903 67.4231 36.0035C64.8116 36.0035 64.84 36.0035 64.84 36.2117V50.187L60.9985 50.3005C60.7335 25.8697 60.5159 26.3145 60.6105 26.3145C60.6109 26.2538 60.5889 26.1952 60.5488 26.1498C60.5086 26.1044 60.4531 26.0754 60.3929 26.0684C60.3929 26.0684 57.4502 26.0684 57.3556 26.1441C57.0339 26.3428 57.4881 48.692 57.4881 50.3762L52.284 50.4708C52.3124 13.5976 52.4165 15.2913 52.1705 15.2913L49.8523 15.3764C49.6915 15.3764 49.7482 13.115 49.7482 50.5087C45.8499 50.5844 45.9635 50.5087 45.9067 50.6601C45.8885 50.6896 45.8783 50.7233 45.8772 50.758C45.8761 50.7926 45.8841 50.8269 45.9004 50.8575C45.9166 50.8881 45.9406 50.914 45.9699 50.9324C45.9993 50.9509 46.0329 50.9614 46.0675 50.9628C51.8109 50.9628 86.593 50.6128 92.2607 50.4424C91.693 51.8901 91.7971 53.4892 93.1123 54.3313V54.5395C87.6433 54.7003 40.8445 54.5395 40.0024 54.5395C40.0024 53.2999 38.9427 10.0115 38.9332 7.58924C45.4904 7.58924 103.274 7.6744 104.779 7.92041C105.516 8.03987 106.218 8.32169 106.833 8.74551C107.449 9.16933 107.962 9.72456 108.337 10.3711ZM5.20143 52.8552C4.11331 54.4259 4.05654 56.4697 4.05654 58.4473C4.05654 58.8825 5.38121 105.454 5.57991 106.59C5.69307 107.414 5.98129 108.204 6.4252 108.907C6.86911 109.611 7.45843 110.211 8.15356 110.668C7.04137 110.612 5.95409 110.318 4.96488 109.807C2.86433 108.652 2.06953 106.277 1.78567 104.962C1.28419 102.597 0.621854 61.9671 0.735397 59.8665C0.669164 56.3845 1.85191 54.5016 5.18251 52.8552H5.20143ZM147.13 159.86C150.918 159.596 154.628 158.661 158.087 157.098C160.548 155.962 163.613 154.164 164.881 152.736C165.08 157.202 164.171 160.088 159.582 162.198C153.508 165.036 139.097 168.518 132.871 164.364C132.313 163.825 130.979 159.728 130.449 157.836C133.165 159.643 141.075 160.343 147.112 159.86H147.13ZM61.5567 172.256C60.7619 172.189 60.3834 172.984 60.1185 173.561C57.9044 178.292 57.9328 178.595 55.6809 178.747C54.9712 178.794 48.2911 179.343 47.7991 179.343C46.077 179.466 45.1213 178.283 46.3419 176.835C47.0378 176.31 47.81 175.896 48.6317 175.605C51.2621 174.385 55.4254 171.158 56.3432 167.165C57.2929 168.281 58.5886 169.047 60.0239 169.341C61.8009 169.532 63.5932 169.165 65.1523 168.291C64.7927 170.335 63.9601 176.703 63.856 178.699C63.3028 178.641 62.7468 178.616 62.1907 178.624C62.1812 178.084 62.0014 172.294 61.5378 172.256H61.5567ZM65.0387 167.383C63.8091 168.252 62.3339 168.707 60.8282 168.679C60.0316 168.619 59.2559 168.396 58.5494 168.023C57.843 167.65 57.2208 167.136 56.7217 166.512C56.7217 166.219 56.6176 163.049 56.646 161.346C59.7117 161.588 62.7891 161.648 65.8619 161.526C65.7105 162.358 65.228 165.736 65.0198 167.383H65.0387Z" fill="#0F172A"/>
<path d="M159.233 45.2482C159.286 45.2374 159.334 45.2084 159.369 45.1661C159.403 45.1239 159.422 45.071 159.422 45.0164C159.422 44.9618 159.403 44.909 159.369 44.8667C159.334 44.8245 159.286 44.7955 159.233 44.7846H157.643C145.749 45.1536 146.137 45.1441 146.147 45.4753C146.156 45.8065 145.787 45.8822 159.233 45.2482ZM159.63 47.4623C157.511 47.4623 149.222 47.5759 147.093 47.7462C147.018 47.7591 146.951 47.798 146.902 47.856C146.853 47.914 146.826 47.9874 146.826 48.0632C146.826 48.139 146.853 48.2123 146.902 48.2703C146.951 48.3283 147.018 48.3672 147.093 48.3801C149.26 48.3801 157.501 47.9543 159.639 47.8692C159.686 47.8581 159.727 47.8315 159.756 47.7937C159.785 47.756 159.8 47.7095 159.799 47.6619C159.798 47.6144 159.78 47.5686 159.75 47.5323C159.719 47.496 159.677 47.4713 159.63 47.4623ZM157.548 50.9443C156.072 51.0011 151.332 50.9443 146.809 50.9443C146.709 50.9443 146.612 50.9842 146.541 51.0552C146.47 51.1262 146.431 51.2224 146.431 51.3228C146.431 51.4232 146.47 51.5195 146.541 51.5904C146.612 51.6614 146.709 51.7013 146.809 51.7013C147.755 51.7675 156.631 51.3985 157.558 51.3607C157.613 51.3594 157.665 51.3363 157.704 51.2963C157.742 51.2564 157.763 51.203 157.761 51.1478C157.76 51.0926 157.737 51.0401 157.697 51.002C157.657 50.9638 157.604 50.9431 157.548 50.9443ZM127.062 3.66294C125.953 3.93523 124.939 4.5032 124.128 5.30634C123.316 6.10948 122.738 7.1177 122.454 8.2236C121.404 12.2449 125.047 16.6258 129.238 15.9256C130.154 15.7322 131.021 15.3538 131.786 14.8137C132.551 14.2735 133.197 13.5829 133.685 12.7843C134.163 11.9028 134.434 10.9244 134.478 9.92301C134.522 8.92158 134.339 7.92316 133.941 7.00301C133.373 5.37555 131.689 2.77351 127.062 3.66294ZM129.352 11.6394C127.526 12.8978 125.387 10.608 126.229 9.19818C127.743 6.6813 130.43 8.58315 130.497 9.52935C130.496 9.94945 130.389 10.3626 130.188 10.7312C129.986 11.0997 129.696 11.4119 129.342 11.6394H129.352ZM129.238 7.33418C128.6 7.13324 127.912 7.14961 127.284 7.38073C126.656 7.61185 126.122 8.04468 125.766 8.61154C125.475 9.12188 125.365 9.7157 125.454 10.2964C125.543 10.8771 125.827 11.4104 126.258 11.8097C126.601 12.1393 127.023 12.3753 127.484 12.495C127.945 12.6148 128.428 12.6144 128.889 12.4938C129.349 12.3733 129.771 12.1366 130.114 11.8064C130.457 11.4762 130.709 11.0636 130.847 10.608C131.654 11.1376 132.557 11.5041 133.506 11.6867C133.171 12.504 132.657 13.2359 132.002 13.8287C131.347 14.4214 130.567 14.8599 129.721 15.1119C125.936 16.2095 122.568 12.7748 122.993 9.06571C123.118 8.20187 123.437 7.37765 123.927 6.65525C124.417 5.93285 125.065 5.33115 125.821 4.89557C126.577 4.46 127.423 4.20192 128.293 4.14083C129.164 4.07973 130.037 4.21722 130.847 4.5429C130.098 5.33469 129.543 6.29048 129.229 7.33418H129.238Z" fill="#0F172A"/>
<path d="M118.546 19.9091C120.855 19.7861 163.131 19.4644 166.216 18.5466C168.591 18.1113 169.404 17.0138 169.281 14.6199C169.281 13.8251 169.414 4.71321 169.168 3.09522C168.95 1.09875 167.881 0.15255 165.629 0.029545C163.737 -0.150232 119.881 0.531029 117.808 0.97574C116.124 1.30691 114.97 1.92194 114.743 3.81433C114.639 4.39151 115.093 15.0741 115.15 16.1149C115.282 18.3668 116.408 19.7009 118.546 19.9091ZM122.237 19.2657C121.679 19.1986 121.144 19.0084 120.67 18.7089C120.195 18.4094 119.793 18.0082 119.493 17.5342C118.826 16.3855 118.482 15.0776 118.499 13.7494C118.395 12.1408 118.092 6.17982 118.054 4.7416C118.054 4.15496 118.054 2.20579 119.493 1.50561C121.716 1.27852 163.141 0.663496 164.91 0.720268C165.856 0.720268 167.133 0.795963 167.853 1.52453C168.912 2.59373 168.572 4.36312 168.638 14.5347C168.846 17.1273 167.862 17.695 165.44 18.0451C163.264 18.3763 122.615 19.2657 122.256 19.2657H122.237ZM117.411 3.53993C117.288 4.39151 117.789 12.5288 117.837 13.6074C117.95 16.2852 118.717 18.187 120.231 19.2846H119.284C116.976 19.2846 115.925 18.1776 115.821 15.8215C115.765 14.4779 115.329 4.4672 115.424 3.89948C115.623 2.17741 116.787 1.79893 118.329 1.60969C117.851 2.15383 117.539 2.82375 117.43 3.53993H117.411Z" fill="#0F172A"/>
<path d="M139.741 5.99042C140.091 5.99042 150.953 5.71603 150.859 5.71603C150.907 5.70568 150.951 5.67889 150.983 5.64014C151.014 5.60138 151.031 5.55301 151.031 5.50313C151.031 5.45325 151.014 5.40489 150.983 5.36613C150.951 5.32738 150.907 5.30058 150.859 5.29024C150.054 5.29024 140.678 5.12939 139.722 5.29024C139.649 5.31665 139.586 5.36534 139.543 5.42941C139.499 5.49347 139.477 5.56966 139.479 5.64716C139.481 5.72466 139.507 5.79953 139.554 5.86115C139.601 5.92276 139.667 5.96799 139.741 5.99042ZM154.189 8.96148C152.827 9.09395 139.145 8.63031 139.05 9.32103C139.05 9.4535 139.173 9.55758 139.268 9.57651C140.46 9.71843 154.142 9.42511 154.237 9.41565C154.266 9.41255 154.295 9.4036 154.322 9.38931C154.348 9.37503 154.371 9.3557 154.39 9.33241C154.409 9.30913 154.423 9.28235 154.432 9.25361C154.44 9.22487 154.443 9.19473 154.44 9.16491C154.437 9.13509 154.428 9.10617 154.414 9.07981C154.399 9.05345 154.38 9.03015 154.357 9.01126C154.334 8.99237 154.307 8.97825 154.278 8.96971C154.249 8.96117 154.219 8.95837 154.189 8.96148ZM153.915 12.5949C151.578 12.5949 139.798 12.5381 139.183 12.6422C139.122 12.6582 139.069 12.6938 139.03 12.7435C138.992 12.7931 138.971 12.8539 138.971 12.9166C138.971 12.9792 138.992 13.0401 139.03 13.0897C139.069 13.1393 139.122 13.1749 139.183 13.191C139.836 13.2951 152.959 12.9923 153.924 12.9639C153.966 12.9533 154.003 12.929 154.029 12.8947C154.055 12.8605 154.068 12.8185 154.067 12.7756C154.066 12.7327 154.05 12.6914 154.023 12.6586C153.995 12.6257 153.957 12.6033 153.915 12.5949ZM20.142 73.2082C26.5478 72.6877 29.9446 64.4369 24.9676 59.8573C24.7878 59.6965 25.1285 59.3369 19.8866 66.916C13.5471 60.9076 13.8877 61.1347 13.7458 61.2388C8.73094 66.1874 13.6985 73.738 20.142 73.2082Z" fill="#0F172A"/>
<path d="M19.4416 63.813C19.6214 64.0117 19.5362 64.0401 23.8225 56.8112C23.8327 56.7951 23.8397 56.7772 23.8429 56.7584C23.8461 56.7396 23.8454 56.7203 23.841 56.7018C23.8366 56.6833 23.8285 56.6658 23.8172 56.6504C23.8059 56.6351 23.7916 56.6222 23.7752 56.6125C22.2636 55.817 20.5319 55.5426 18.8485 55.8317C17.1651 56.1208 15.6241 56.9574 14.4646 58.2116C14.3511 58.3535 14.1808 58.0791 19.4416 63.813ZM9.55386 98.8696C9.79655 98.868 10.0333 98.7947 10.2344 98.6588C10.4355 98.523 10.592 98.3307 10.684 98.1061C10.7761 97.8815 10.7996 97.6348 10.7517 97.3969C10.7039 97.1589 10.5867 96.9405 10.4149 96.769C10.888 96.0026 13.9537 90.9594 14.8525 89.5969C15.0855 89.7046 15.3455 89.7396 15.5987 89.6974C15.8518 89.6553 16.0864 89.5378 16.2718 89.3603L20.6433 92.7288C20.572 92.9397 20.5593 93.166 20.6065 93.3835C20.6537 93.601 20.759 93.8017 20.9113 93.9641C21.0636 94.1265 21.2571 94.2445 21.4712 94.3055C21.6852 94.3666 21.9119 94.3684 22.1269 94.3108C22.3419 94.2532 22.5373 94.1383 22.6922 93.9784C22.847 93.8185 22.9556 93.6195 23.0063 93.4028C23.057 93.186 23.0479 92.9595 22.98 92.7475C22.9121 92.5355 22.788 92.3459 22.6208 92.1989L24.1726 90.1551C24.4503 90.2822 24.7652 90.3023 25.0568 90.2115C25.3484 90.1207 25.5962 89.9254 25.7527 89.6631L30.2755 91.1959C30.2511 91.3995 30.2779 91.6059 30.3535 91.7964C30.4291 91.9869 30.5512 92.1555 30.7085 92.2869C30.8659 92.4182 31.0536 92.5082 31.2545 92.5486C31.4555 92.5889 31.6634 92.5784 31.8593 92.518C32.0551 92.4576 32.2328 92.3492 32.3761 92.2027C32.5195 92.0561 32.6239 91.8761 32.68 91.6789C32.736 91.4818 32.7419 91.2737 32.6971 91.0737C32.6523 90.8737 32.5582 90.688 32.4234 90.5336C32.8018 89.1805 36.0757 79.1793 36.4068 78.2331C36.7246 78.2054 37.0194 78.0563 37.23 77.8167C38.1289 78.5264 40.8256 80.5418 41.6961 81.1284C41.6463 81.3243 41.6456 81.5294 41.694 81.7255C41.7423 81.9217 41.8382 82.103 41.9733 82.2533C42.1084 82.4036 42.2784 82.5183 42.4683 82.5873C42.6582 82.6563 42.8622 82.6775 43.0622 82.6489C43.2623 82.6203 43.4522 82.5429 43.6152 82.4235C43.7782 82.3041 43.9093 82.1463 43.9968 81.9642C44.0844 81.7821 44.1257 81.5813 44.1172 81.3794C44.1087 81.1775 44.0506 80.9808 43.948 80.8067C46.4649 76.7948 46.5784 76.8611 46.3135 76.6813C46.2637 76.6504 46.2041 76.6391 46.1464 76.6496C46.0887 76.66 46.037 76.6916 46.0012 76.7381C45.5565 77.3815 43.456 80.3336 43.456 80.3336C43.2322 80.2234 42.9808 80.1817 42.7334 80.2137C42.486 80.2457 42.2535 80.3499 42.0651 80.5134C41.1851 79.8984 38.3938 77.9019 37.5044 77.2112C37.5424 76.9928 37.5207 76.7683 37.4416 76.5612C37.3625 76.3542 37.2289 76.1724 37.055 76.035C36.8811 75.8976 36.6732 75.8098 36.4535 75.7808C36.2338 75.7518 36.0103 75.7827 35.8067 75.8703C35.6031 75.9578 35.4269 76.0987 35.2968 76.2782C35.1667 76.4576 35.0875 76.6689 35.0675 76.8896C35.0476 77.1103 35.0877 77.3324 35.1835 77.5322C35.2794 77.732 35.4274 77.9023 35.612 78.0249C34.7983 80.239 32.4328 87.9032 31.8273 90.1362C31.5999 90.0776 31.3607 90.0837 31.1366 90.1539C30.9125 90.2242 30.7126 90.3557 30.5594 90.5336C29.6132 90.2119 26.7746 89.3509 25.9136 89.0765C25.9136 88.7527 25.785 88.4423 25.556 88.2134C25.3271 87.9845 25.0167 87.8559 24.693 87.8559C24.3692 87.8559 24.0588 87.9845 23.8299 88.2134C23.601 88.4423 23.4724 88.7527 23.4724 89.0765C23.4744 89.3467 23.5641 89.609 23.7278 89.824L22.0342 91.934C21.8719 91.8984 21.7041 91.8969 21.5412 91.9294C21.3784 91.962 21.224 92.028 21.088 92.1232L16.5746 88.7074C16.6239 88.4146 16.5647 88.1137 16.408 87.8614C16.2514 87.609 16.0082 87.4224 15.7239 87.3366C15.4395 87.2507 15.1337 87.2714 14.8635 87.3949C14.5934 87.5183 14.3776 87.7361 14.2564 88.0073C14.1623 88.2023 14.124 88.4195 14.1457 88.6349C14.1674 88.8503 14.2483 89.0556 14.3795 89.2279C13.49 90.562 10.2635 95.7188 9.79987 96.4663C9.63005 96.4236 9.45303 96.418 9.28085 96.4498C9.10866 96.4816 8.94533 96.5501 8.80195 96.6506C8.65856 96.7511 8.53848 96.8812 8.44985 97.0323C8.36123 97.1833 8.30613 97.3516 8.2883 97.5258C8.27047 97.7 8.29032 97.876 8.34652 98.0418C8.40271 98.2076 8.49393 98.3594 8.61398 98.4869C8.73402 98.6144 8.88009 98.7145 9.04226 98.7806C9.20444 98.8466 9.37892 98.8769 9.55386 98.8696ZM26.0176 102.219C25.9474 102.219 25.88 102.247 25.8303 102.297C25.7806 102.346 25.7527 102.414 25.7527 102.484C25.7527 102.554 25.7806 102.622 25.8303 102.671C25.88 102.721 25.9474 102.749 26.0176 102.749C27.6735 102.749 47.1083 101.992 47.7801 101.983C47.8242 101.973 47.8637 101.948 47.892 101.913C47.9203 101.878 47.9357 101.834 47.9357 101.789C47.9357 101.743 47.9203 101.7 47.892 101.664C47.8637 101.629 47.8242 101.604 47.7801 101.595C45.1402 101.604 27.7113 102.03 26.0176 102.219ZM34.3347 95.4538C34.3949 95.4538 34.4527 95.4299 34.4952 95.3873C34.5378 95.3447 34.5618 95.287 34.5618 95.2267C34.5618 95.1665 34.5378 95.1087 34.4952 95.0662C34.4527 95.0236 34.3949 94.9996 34.3347 94.9996C33.5872 94.9996 30.8811 94.8388 30.2471 94.8672C30.1367 94.8672 30.0308 94.911 29.9527 94.9891C29.8747 95.0672 29.8308 95.1731 29.8308 95.2835C29.8308 95.3939 29.8747 95.4998 29.9527 95.5779C30.0308 95.656 30.1367 95.6998 30.2471 95.6998C30.8716 95.7755 33.5493 95.5201 34.3347 95.4538ZM24.2199 96.665H20.1418C20.0536 96.6691 19.9681 96.6969 19.8944 96.7454C19.8206 96.7939 19.7613 96.8614 19.7226 96.9407C19.6839 97.0201 19.6672 97.1084 19.6744 97.1964C19.6816 97.2843 19.7123 97.3688 19.7633 97.4408C20.0188 97.8193 20.2175 97.526 24.2388 97.1854C24.2887 97.1615 24.3306 97.1236 24.3592 97.0762C24.3878 97.0289 24.402 96.9742 24.4 96.9189C24.398 96.8637 24.3799 96.8102 24.3479 96.765C24.3159 96.7199 24.2714 96.6851 24.2199 96.665ZM8.08726 101.718C8.28596 101.718 11.1624 101.405 11.7963 101.377C11.8666 101.377 11.934 101.349 11.9837 101.299C12.0334 101.25 12.0613 101.182 12.0613 101.112C12.0613 101.042 12.0334 100.974 11.9837 100.925C11.934 100.875 11.8666 100.847 11.7963 100.847C11.4273 100.847 8.22919 100.98 8.01157 101.084C7.9538 101.118 7.9073 101.169 7.87766 101.23C7.84803 101.29 7.83652 101.358 7.84451 101.425C7.85251 101.492 7.87967 101.555 7.92273 101.607C7.96579 101.659 8.02293 101.697 8.08726 101.718Z" fill="#0F172A"/>
<path d="M41.4787 85.3103H41.6301C45.6514 84.9507 45.5094 85.2251 45.6798 85.0359C45.7112 84.9988 45.7318 84.9537 45.7394 84.9057C45.7469 84.8576 45.7411 84.8084 45.7225 84.7635C45.7039 84.7185 45.6733 84.6796 45.6341 84.6508C45.5948 84.6221 45.5484 84.6047 45.5 84.6006C44.0902 84.6006 42.7655 84.4776 41.4976 84.5344C40.9583 84.5439 41.0056 85.3103 41.4787 85.3103ZM20.3218 77.05C20.2189 77.05 20.1202 77.0909 20.0475 77.1636C19.9747 77.2364 19.9338 77.3351 19.9338 77.4379C19.9338 77.5408 19.9747 77.6395 20.0475 77.7123C20.1202 77.785 20.2189 77.8259 20.3218 77.8259C21.6748 77.8259 26.9451 77.3433 28.2225 77.2109C28.283 77.1993 28.3376 77.1669 28.3768 77.1194C28.4161 77.072 28.4376 77.0123 28.4376 76.9507C28.4376 76.889 28.4161 76.8293 28.3768 76.7819C28.3376 76.7344 28.283 76.702 28.2225 76.6904C26.9073 76.7945 21.6275 76.9365 20.3218 77.05ZM19.6784 79.2641C19.6022 79.283 19.5356 79.329 19.4911 79.3935C19.4465 79.458 19.4271 79.5366 19.4364 79.6145C19.4456 79.6924 19.4831 79.7641 19.5416 79.8164C19.6001 79.8686 19.6756 79.8976 19.7541 79.898C21.249 79.898 27.1154 79.3682 28.5915 79.3587C28.6567 79.3587 28.7193 79.3328 28.7655 79.2867C28.8116 79.2405 28.8375 79.1779 28.8375 79.1127C28.8375 79.0475 28.8116 78.9849 28.7655 78.9387C28.7193 78.8926 28.6567 78.8667 28.5915 78.8667C25.6149 78.8012 22.6373 78.9339 19.6784 79.2641ZM27.8345 80.778C25.3584 80.7423 22.882 80.8402 20.4164 81.0713C19.9622 81.1281 19.9433 81.8188 20.4164 81.8188C21.2585 81.8188 25.857 81.3457 27.844 81.27C27.8763 81.2694 27.9082 81.2624 27.9378 81.2495C27.9674 81.2366 27.9942 81.2179 28.0166 81.1946C28.039 81.1714 28.0566 81.1439 28.0684 81.1138C28.0802 81.0837 28.0859 81.0516 28.0853 81.0193C28.0847 80.987 28.0777 80.9551 28.0648 80.9255C28.0518 80.8959 28.0332 80.8691 28.0099 80.8467C27.9866 80.8243 27.9591 80.8067 27.9291 80.7949C27.899 80.7831 27.8669 80.7774 27.8345 80.778ZM30.9475 60.397C31.4112 60.397 36.1327 59.9049 37.0599 59.8387C37.1252 59.8387 37.1878 59.8128 37.2339 59.7666C37.28 59.7205 37.3059 59.6579 37.3059 59.5927C37.3059 59.5274 37.28 59.4649 37.2339 59.4187C37.1878 59.3726 37.1252 59.3467 37.0599 59.3467C36.5963 59.3467 31.5342 59.4981 30.9759 59.5359C30.4177 59.5738 30.4177 60.397 30.9475 60.397ZM31.9221 62.3083C33.4076 62.3083 39.1983 61.7595 40.6649 61.6649C40.7184 61.654 40.7665 61.625 40.801 61.5827C40.8355 61.5405 40.8544 61.4876 40.8544 61.433C40.8544 61.3785 40.8355 61.3256 40.801 61.2833C40.7665 61.2411 40.7184 61.2121 40.6649 61.2012C39.1889 61.2675 33.3603 61.2958 31.9126 61.4472C31.8096 61.4637 31.7158 61.5166 31.6485 61.5964C31.5812 61.6762 31.5448 61.7775 31.546 61.8818C31.5471 61.9862 31.5857 62.0867 31.6548 62.165C31.7238 62.2432 31.8187 62.2941 31.9221 62.3083Z" fill="#0F172A"/>
</svg>
