<svg width="219" height="180" viewBox="0 0 219 180" fill="none" xmlns="http://www.w3.org/2000/svg">
<path fill-rule="evenodd" clip-rule="evenodd" d="M60.2341 27.1732V28.0083C60.2341 28.2423 60.3248 28.4667 60.4863 28.6321C60.6478 28.7976 60.8669 28.8905 61.0953 28.8905C61.3237 28.8905 61.5427 28.7976 61.7043 28.6321C61.8658 28.4667 61.9565 28.2423 61.9565 28.0083V27.1261C61.9447 26.8941 61.8464 26.6757 61.6818 26.5159C61.5173 26.356 61.2991 26.2671 61.0723 26.2674C60.9587 26.2689 60.8466 26.2937 60.7425 26.3403C60.6385 26.387 60.5446 26.4545 60.4665 26.5389C60.3883 26.6234 60.3275 26.723 60.2876 26.8319C60.2477 26.9409 60.2295 27.0569 60.2341 27.1732ZM59.9011 24.7147C61.1642 24.4089 62.1976 23.5384 60.3604 23.6561C59.9053 23.7211 59.456 23.8233 59.0169 23.9619C57.2945 24.6912 58.7872 24.9853 59.9011 24.7147ZM165.256 32.9017C164.727 34.039 163.842 34.9623 162.741 35.5248C162.699 35.5404 162.663 35.5707 162.639 35.6105C162.616 35.6504 162.607 35.6972 162.614 35.7431C162.621 35.789 162.643 35.8311 162.677 35.8621C162.71 35.8931 162.754 35.9111 162.799 35.913C163.17 35.98 163.553 35.9522 163.911 35.832C164.27 35.7118 164.594 35.5029 164.855 35.2238C165.116 34.9447 165.306 34.604 165.408 34.2318C165.51 33.8596 165.521 33.4674 165.44 33.0899C165.44 33.04 165.421 32.9921 165.386 32.9568C165.352 32.9215 165.305 32.9017 165.256 32.9017ZM160.686 23.5737C160.465 23.5158 160.231 23.5486 160.034 23.6651C159.837 23.7816 159.691 23.9725 159.63 24.1971C159.526 24.58 159.506 24.9818 159.572 25.3734C159.572 25.6074 159.663 25.8318 159.824 25.9973C159.986 26.1627 160.205 26.2557 160.433 26.2557C160.662 26.2557 160.881 26.1627 161.042 25.9973C161.204 25.8318 161.295 25.6074 161.295 25.3734C161.295 24.5265 161.478 23.7972 160.686 23.5737ZM121.197 139.144C120.266 138.662 102.479 139.85 102.032 141.897C101.94 142.344 102.227 144.061 102.732 144.343C103.731 144.884 120.841 143.896 121.782 141.991C122.05 141.527 122.138 140.978 122.03 140.451C121.921 139.924 121.624 139.457 121.197 139.144ZM102.95 143.849C102.596 143.279 102.405 142.619 102.399 141.944C102.629 140.885 112.102 140.309 113.147 140.238C113.122 141.188 113.361 142.127 113.836 142.943C112.527 143.155 103.57 144.19 102.95 143.884V143.849ZM120.944 141.497C120.037 142.155 115.432 142.755 114.33 142.896C114.426 141.965 114.233 141.027 113.779 140.214C115.145 140.12 119.52 139.873 120.818 139.991C121.162 140.25 121.174 141.05 120.944 141.52V141.497ZM91.0196 141.932C90.9886 141.912 90.9528 141.902 90.9162 141.902C90.8797 141.902 90.8439 141.912 90.8129 141.932C90.8129 141.814 68.8807 154.471 68.2147 155.812C68.185 155.876 68.1696 155.947 68.1696 156.018C68.1696 156.089 68.185 156.159 68.2147 156.224C68.9151 158.282 91.8004 179.479 92.7535 179.961C93.0291 180.102 93.3736 179.855 94.453 179.267C96.7495 178.009 116.351 167.281 118.372 165.552C118.934 164.964 119.279 159.67 118.969 159.07C118.659 158.47 91.0196 142.049 91.0196 141.932ZM93.0061 178.985C90.5603 176.997 71.1887 159.117 69.0414 156.083C71.0394 154.153 90.3651 142.685 90.9507 142.332C93.9133 144.179 115.237 157.471 117.97 159.353C116.525 159.78 115.151 160.427 113.893 161.27C113.239 161.917 114.869 163.117 117.132 165.363C113.675 167.645 96.5313 177.056 93.0061 178.985ZM117.786 164.693C117.671 164.575 114.904 161.811 114.778 161.705C115.893 160.992 117.043 160.336 118.222 159.741C118.226 161.403 118.072 163.061 117.763 164.693H117.786Z" fill="#0F172A"/>
<path fill-rule="evenodd" clip-rule="evenodd" d="M108.244 162.528C107.44 162.881 97.6334 166.21 94.866 167.363C94.0527 167.778 93.1664 168.022 92.2594 168.081C92.0987 168.081 93.0288 166.246 100.068 160.623C100.803 160.035 102.215 158.917 102.364 158C103.042 154.965 95.0153 159.505 87.8385 162.376C87.0963 162.784 86.2864 163.047 85.4501 163.152C85.3697 162.67 86.9888 161.152 87.0922 161.035C91.3753 156.188 96.8066 154.189 96.4392 152.401C95.8765 149.601 85.9094 155.047 83.8081 155.93C82.0397 156.694 79.2149 157.612 79.3872 157.612C79.0082 157.765 79.3872 158.035 79.4561 158C79.525 157.965 83.165 156.824 84.0492 156.424C85.3697 155.906 94.2 151.542 95.6698 152.565C96.2555 152.989 90.0088 156.435 86.4836 160.423C85.8635 161.105 84.187 162.493 84.7037 163.622C84.7985 163.797 84.9421 163.938 85.1161 164.029C85.29 164.119 85.4864 164.153 85.6798 164.128C87.3907 164.128 99.0573 158.141 101.457 157.953C100.906 158.697 100.248 159.352 99.5051 159.894C97.7942 161.282 92.8336 165.422 91.6853 167.328C91.0882 168.316 91.5819 168.904 92.3628 168.916C93.3962 168.916 94.6593 168.198 97.7712 166.998C108.324 162.834 108.657 163.023 108.485 162.634C108.476 162.611 108.463 162.59 108.446 162.572C108.429 162.554 108.408 162.539 108.386 162.53C108.363 162.52 108.339 162.515 108.315 162.514C108.29 162.514 108.266 162.519 108.244 162.528Z" fill="#0F172A"/>
<path fill-rule="evenodd" clip-rule="evenodd" d="M218.169 117.676C218.02 105.373 216.94 80.2588 214.563 68.0842C213.312 61.6264 210.602 52.7924 205.561 48.5225C203.425 46.7228 200.279 44.9937 194.572 41.7589C194.641 41.6059 185.558 37.8418 185.133 39.0887C184.78 36.9433 184.285 34.825 183.652 32.7485C184.501 32.4662 184.122 29.9254 184.478 28.4903C184.834 27.0553 186.178 26.0319 186.867 24.8556C188.417 22.2325 188.681 17.6567 188.394 14.6101C188.118 11.7753 184.077 5.44685 181.412 4.41172C178.748 3.37659 176.016 3.41187 173.202 2.83549C170.906 2.35321 169.206 1.04754 166.634 0.718175C164.062 0.388815 162.523 1.89446 160.318 1.89446C158.114 1.89446 155.633 0.141794 153.325 0.000638945C152.071 -0.0192905 150.853 0.427589 149.896 1.2583C148.94 2.08902 148.31 3.24712 148.124 4.51758C147.845 6.41123 148.064 8.34671 148.759 10.1248C149.453 11.9028 150.597 13.4592 152.074 14.6337C153.872 15.7988 155.892 16.5568 157.999 16.8568C157.861 22.8677 158.481 21.2562 157.792 21.7855C157.103 22.3148 157.321 26.0201 157.563 27.0435C157.666 27.4552 157.769 27.6081 158.263 27.7728C157.987 28.9491 156.047 31.4899 157.792 32.1133C158.022 32.1956 158.941 32.3603 159.032 32.3956C159.268 33.5111 159.614 34.599 160.066 35.6422C160.511 36.6909 161.162 37.635 161.978 38.416C162.793 39.1969 163.757 39.7982 164.808 40.1826C166.462 40.8414 167.771 41.0178 168.735 41.3589C168.868 41.8454 168.938 42.3477 168.942 42.8528C164.841 43.9569 160.978 45.8359 157.551 48.3931C151.339 53.557 142.509 74.9772 140.201 77.3298C139.305 78.2356 118.211 82.4231 115.099 84.5875C114.49 85.011 114.467 85.3756 114.548 86.1284C113.79 86.2696 110.598 86.8813 110.242 87.5753C110.137 88.0794 110.164 88.6032 110.322 89.0927C107.481 88.5492 104.614 88.1565 101.733 87.9164C101.206 87.929 100.687 88.0549 100.21 88.2859C99.7336 88.5169 99.3096 88.8479 98.9656 89.2574C98.0011 90.4337 98.7819 90.2337 97.7599 90.069C95.5897 89.7514 87.8158 92.4216 86.8398 92.8921C86.8398 92.4686 86.8398 92.1746 86.4034 91.9393C85.1218 91.5589 83.7828 91.4233 82.4533 91.5394C81.6495 92.0922 84.7499 91.904 86.036 92.5863C86.036 93.492 86.1508 102.785 86.036 104.608C86.036 104.937 86.036 104.89 85.7948 104.926C84.6465 105.09 82.993 104.926 82.4878 105.302C82.6715 101.208 82.4878 91.1865 81.9366 90.5983C81.6036 90.2455 75.4717 89.4926 68.8002 88.6692C68.8239 83.7246 68.5555 78.783 67.9964 73.8715C66.7678 62.9556 64.1956 50.087 56.1576 43.5586C56.6234 43.7534 57.136 43.7985 57.6274 43.688C58.2836 43.4212 58.99 43.3086 59.6943 43.3586C60.8426 43.6762 60.9919 44.5349 63.8626 42.5587C64.0463 42.4293 64.5286 42.4646 64.9075 42.0765C66.2051 40.7473 65.5506 38.9475 65.5506 37.6066C65.7407 36.6949 65.8026 35.7601 65.7343 34.8305C65.6991 34.6919 65.6331 34.5636 65.5415 34.4554C65.4498 34.3473 65.3351 34.2623 65.2061 34.2071C65.2061 33.8189 65.608 33.1249 65.0338 32.3721C65.8606 31.9251 66.7563 31.4075 66.297 30.49C65.4195 29.0525 64.6958 27.5223 64.1382 25.926C63.7822 24.5615 64.2645 22.8206 64.2415 21.3503C64.2415 20.3387 64.3449 19.1271 64.2415 18.0214C65.1272 17.3879 65.804 16.4936 66.1821 15.4571C66.2659 15.0381 66.2479 14.6044 66.1298 14.1942C66.0117 13.784 65.797 13.4098 65.5046 13.1045C65.1257 12.8575 65.0453 13.1045 65.0568 12.3752C65.0983 12.1193 65.0871 11.8573 65.0238 11.606C64.9605 11.3548 64.8466 11.12 64.6894 10.9166C64.2071 10.4343 63.1047 9.90498 62.7602 9.41094C62.1746 8.52873 61.8301 7.64651 60.7278 7.29363C59.9469 7.03484 59.212 7.54065 58.6838 7.3642C57.9604 7.12894 57.214 6.32907 56.3873 7.176C56.2027 7.27852 56.0001 7.34273 55.7913 7.36493C55.5824 7.38713 55.3713 7.3669 55.1701 7.30539C54.4811 6.70548 54.3089 5.67035 53.1376 5.44685C52.4716 5.32922 51.1626 5.65859 50.6573 5.44685C49.8296 4.82273 48.9164 4.32727 47.9474 3.97649C46.864 3.8708 45.7709 3.96644 44.7207 4.2588C43.9858 4.41172 43.0442 4.32938 42.2748 4.44701C40.6787 4.70579 40.2194 6.11734 39.163 6.79958C38.1066 7.48183 36.3267 7.49359 35.3162 9.02277C34.4665 10.3167 34.6502 11.7165 34.3172 13.0104C34.1794 13.5632 33.4445 14.1867 33.1689 14.7513C32.5259 16.057 33.0197 17.3744 33.0082 18.5036C32.9967 19.6329 32.2273 20.668 32.4455 22.0325C32.6228 22.714 32.9142 23.3587 33.3067 23.9381C33.3115 24.1288 33.2883 24.3191 33.2378 24.5027C32.8875 25.4284 32.8155 26.4402 33.0312 27.4081C33.2191 28.3361 33.6566 29.1917 34.2943 29.8784C35.0981 30.5959 35.5114 30.4077 36.0971 31.4311C36.3434 31.9722 36.7137 32.4443 37.1765 32.8073C38.0262 33.3955 39.0711 32.8897 39.5764 33.1484C39.8907 33.3185 40.2335 33.4262 40.5869 33.466C40.3042 33.6124 40.06 33.8262 39.8749 34.0895C33.6283 34.9011 25.3836 39.571 20.3541 45.9582C18.3676 48.5813 15.026 52.369 13.7744 55.4038C7.04547 70.9779 10.3296 95.3976 7.61961 102.938L0.913629 120.852C0.592109 121.711 -0.234656 125.981 0.0638981 127.451C0.546178 129.639 2.78533 126.899 4.15179 125.346C3.30206 128.44 3.31354 129.251 2.86571 141.426C2.72792 145.237 2.60161 149.389 2.54419 152.883C2.5409 152.908 2.54291 152.933 2.55007 152.958C2.55724 152.982 2.56941 153.004 2.58574 153.023C2.60208 153.042 2.6222 153.057 2.64475 153.067C2.6673 153.078 2.69175 153.083 2.71644 153.083C3.03796 153.083 2.83126 153.459 3.30206 143.743C3.63506 136.909 4.014 130.533 4.04845 130.016C4.21842 128.005 4.65097 126.027 5.33452 124.134C8.54131 121.68 12.1499 119.832 15.9906 118.676C20.2651 117.505 24.7789 117.623 28.9892 119.017C30.1375 119.406 33.2264 120.194 34.3287 119.664C36.6253 118.488 42.5389 114.595 43.515 112.23C43.9973 111.054 44.3877 110.101 44.7666 109.219C46.5235 109.384 48.6823 109.842 50.5999 109.866C52.7472 109.866 54.1251 109.513 56.5021 107.36C65.2405 107.56 74.8746 107.29 79.4678 107.113C82.5337 108.29 91.9496 111.736 94.2347 114.054C95.1304 114.948 95.6586 117.441 95.9801 120.217C96.4035 123.535 96.515 126.888 96.3131 130.227C90.0205 131.463 82.0055 133.415 75.8047 134.991C75.4575 134.892 75.0946 134.864 74.7368 134.909C73.0948 135.086 73.8642 135.768 73.3245 134.062C73.3503 134.068 73.3772 134.068 73.4029 134.061C73.4285 134.054 73.4521 134.04 73.4714 134.022C73.4907 134.003 73.5053 133.98 73.5137 133.954C73.5221 133.928 73.5242 133.901 73.5197 133.874C73.5027 131.613 73.2448 129.361 72.7503 127.157C72.6699 126.828 72.1073 126.663 71.7628 126.557C68.0423 125.452 53.6773 123.97 50.5195 124.805C48.4641 125.358 34.2368 132.886 33.5938 134.486C32.9508 136.085 31.2054 145.707 30.8839 147.484C23.443 149.707 17.5752 151.542 14.7045 152.542C14.6807 152.55 14.6588 152.562 14.64 152.579C14.6212 152.596 14.6059 152.617 14.5952 152.64C14.5844 152.663 14.5784 152.688 14.5774 152.714C14.5765 152.739 14.5807 152.765 14.5897 152.789C14.7275 153.224 18.4939 151.224 57.0762 140.838C57.4639 141.852 57.9608 142.818 58.5575 143.72C57.4092 144.002 56.1117 144.519 55.7327 145.602C55.6654 145.83 55.6542 146.072 55.7003 146.306C55.7464 146.54 55.8483 146.759 55.9968 146.943C56.9389 148.023 58.1947 148.765 59.5795 149.06C62.0075 149.683 64.5304 149.819 67.0089 149.46C69.3888 149.247 71.7338 148.733 73.9905 147.931C76.4478 146.872 76.287 145.296 75.3454 144.578C74.3751 143.994 73.3089 143.595 72.1991 143.402C73.2441 141.461 72.268 142.32 73.8297 141.932C74.7134 141.716 75.5207 141.251 76.1607 140.591C77.1712 139.532 77.8487 136.921 76.8841 135.662C81.7299 134.486 101.216 129.545 105.982 129.91C114.628 130.557 177.497 157.035 192.379 162.14C192.402 162.148 192.427 162.151 192.451 162.149C192.476 162.147 192.499 162.14 192.521 162.128C192.543 162.117 192.563 162.101 192.578 162.082C192.594 162.063 192.606 162.041 192.614 162.017C192.622 161.993 192.624 161.967 192.622 161.942C192.62 161.917 192.614 161.893 192.602 161.871C192.591 161.848 192.576 161.828 192.557 161.812C192.538 161.796 192.517 161.783 192.493 161.776C188.601 160.387 179.92 156.847 169.528 152.589C170.033 151.342 171.365 147.319 172.398 145.931C172.823 145.366 172.8 145.319 176.59 145.543C186.522 146.131 195.272 145.86 204.803 142.743C210.625 140.826 213.484 136.403 215.138 130.486C215.471 130.592 216.378 130.898 216.699 130.969C216.791 130.991 216.887 130.991 216.979 130.969C217.07 130.946 217.156 130.902 217.227 130.839C218.364 129.651 218.169 119.994 218.169 117.676ZM61.1067 36.7949C60.7959 36.9109 60.4604 36.9393 60.1353 36.8773C59.8101 36.8152 59.5071 36.6649 59.258 36.442C59.0101 36.2388 58.8161 35.9751 58.6937 35.675C58.5713 35.3749 58.5245 35.0481 58.5575 34.7247C58.5423 34.6763 58.5464 34.6237 58.569 34.5785C58.5917 34.5333 58.6309 34.4991 58.6781 34.4835C58.7253 34.4679 58.7766 34.4722 58.8208 34.4953C58.8649 34.5185 58.8983 34.5587 58.9135 34.607C59.4804 35.4424 60.2811 36.0821 61.2101 36.442C61.2396 36.4671 61.2613 36.5005 61.2725 36.5382C61.2836 36.5758 61.2836 36.6159 61.2726 36.6536C61.2616 36.6912 61.24 36.7247 61.2105 36.7499C61.1809 36.775 61.1449 36.7907 61.1067 36.7949ZM50.3243 26.4906C50.3635 26.1451 50.4991 25.8184 50.7147 25.5496C50.9674 25.2908 51.7367 25.4555 52.2764 25.0791C52.68 24.7523 52.9863 24.3163 53.1606 23.8205C53.8036 22.5148 54.8256 23.5264 56.2495 21.3738C56.6129 20.7684 56.8949 20.1156 57.0877 19.4329C57.8915 19.0447 58.9364 19.6094 59.9469 17.9037C60.2799 17.3274 60.4981 16.7275 61.0952 16.5628C61.5431 17.0568 61.9909 18.9154 63.8052 18.1978C63.8052 18.833 63.6674 22.0443 63.6329 22.3031C63.4841 23.0783 63.4034 23.8656 63.3918 24.6556C63.3918 27.0082 64.4482 28.3021 65.6195 30.7606C65.8032 31.1487 64.8386 31.5252 64.3564 31.7957C63.676 31.539 62.9719 31.3537 62.255 31.2429C60.0273 30.69 58.2475 31.878 56.3298 32.4191C56.0048 32.4212 55.6808 32.3817 55.3653 32.3015C54.6419 32.2309 53.884 32.9838 52.862 33.1249C52.5956 33.1785 52.3195 33.1488 52.0697 33.0398C51.82 32.9307 51.6079 32.7473 51.4611 32.5132C51.3373 32.0824 51.2489 31.6417 51.197 31.1958C51.0937 30.7723 50.9674 30.3489 50.8755 29.9372C50.6918 29.0902 51.2315 28.7609 50.5999 27.5846C50.1636 26.7847 50.175 27.1376 50.3243 26.4906ZM50.7607 50.4869C51.5338 48.9838 52.1645 47.4082 52.6438 45.7818C53.2869 49.8753 53.6314 51.9455 53.7921 52.9806C52.9539 52.2631 52.8735 51.9926 50.7607 50.4399V50.4869ZM54.2055 55.2744C54.7682 58.8033 54.6419 58.0034 54.7452 58.7327C54.4709 58.2034 54.1355 57.7097 53.7462 57.2623C53.8747 56.4853 53.9324 55.6977 53.9184 54.9098L54.2055 55.2744ZM50.0487 57.3917C49.363 56.6614 48.737 55.8745 48.177 55.0392C48.7448 53.679 49.385 52.3517 50.0947 51.0633C52.5061 52.9571 52.3223 52.9336 52.9194 53.6982C53.0071 54.6999 53.0071 55.7077 52.9194 56.7095L50.0487 57.3917ZM50.198 58.1563C51.5645 61.2735 52.1156 66.3903 52.4027 69.8016C50.9692 65.505 49.0419 61.3983 46.6613 57.5682C47.1268 56.9165 47.5415 56.2282 47.9014 55.5097C48.3744 56.412 48.9403 57.2598 49.5894 58.0387C49.6724 58.0921 49.7658 58.1262 49.863 58.1384C49.9603 58.1506 50.059 58.1406 50.1521 58.1093L50.198 58.1563ZM43.3772 32.9838C43.4706 33.0135 43.5668 33.0332 43.6643 33.0426C43.9316 33.0303 44.188 32.9297 44.3949 32.7558C44.6019 32.582 44.7484 32.3442 44.8125 32.078C44.9963 31.9604 45.1341 31.831 45.1226 31.6075C45.1111 31.384 42.6423 27.9257 45.7886 26.1495C46.0661 26.1187 46.345 26.1924 46.5732 26.357C46.8014 26.5215 46.9634 26.7656 47.0287 27.0435C47.1773 27.671 47.4911 28.2446 47.9359 28.7021C47.9707 29.4539 48.0667 30.2015 48.223 30.937C48.3148 31.3722 47.9933 31.9369 47.9244 32.5368C47.7636 33.7131 48.8775 35.007 49.2794 36.0656C49.8191 37.4889 49.4516 39.0181 50.7377 40.2767C52.0238 41.5354 51.7826 40.5002 52.2305 43.3233C51.6947 45.542 50.9566 47.7041 50.0258 49.7812C48.7282 47.8991 42.16 36.9126 40.8395 34.4071C41.3332 34.1012 42.8719 33.2072 43.3313 32.9367L43.3772 32.9838ZM39.9323 34.5482C40.7706 36.5479 49.1186 50.0987 49.1186 50.2164C48.7167 51.522 46.4087 56.933 45.3178 57.5211C42.9179 55.7684 36.3382 37.336 35.8674 35.6657C37.1629 35.0972 38.5257 34.7057 39.9209 34.5012L39.9323 34.5482ZM51.7826 86.4813C50.5195 86.0696 46.4431 71.8954 42.803 64.0495C40.6213 59.3444 36.3382 51.5691 31.6647 49.4988C26.6122 47.2757 17.2193 52.6042 16.2203 59.5208C15.6103 64.0823 15.9706 68.725 17.2767 73.1305C22.6966 89.9161 30.0341 103.302 45.7082 107.137C46.0757 106.384 44.7781 107.008 55.0897 107.29C54.5843 107.693 54.0465 108.051 53.4821 108.36C51.553 109.431 47.8899 108.572 45.18 108.266L45.5245 107.502C29.3796 103.808 21.8239 89.8573 16.4155 73.3893C15.0496 68.8511 14.6578 64.0639 15.2672 59.3561C16.3006 51.8749 26.0266 46.5111 31.4121 48.3696C32.7852 48.8937 34.0423 49.6935 35.1095 50.7222C34.5974 46.0086 34.4707 41.2595 34.7306 36.5244C34.9416 36.3324 35.1683 36.1592 35.4081 36.0068C36.3956 39.5357 42.0222 56.4036 44.8814 58.2739C45.0628 58.3837 45.2751 58.4272 45.4837 58.3973C45.6923 58.3674 45.8848 58.2658 46.0297 58.1093C48.6134 62.6615 51.0248 67.3196 51.9893 72.2247C52.535 74.9319 52.6744 77.7085 52.4027 80.4587C50.7721 73.5422 46.2594 63.5437 41.1266 58.7562C46.3742 68.0371 50.198 82.8819 51.9089 85.8109C52.5934 86.0041 53.2925 86.1379 53.9988 86.2108C53.7003 79.1531 53.4706 64.4377 50.554 58.0505C50.9099 58.0505 53.4247 57.4976 53.4247 57.4976C53.8782 58.0554 54.2638 58.6676 54.573 59.3208C55.0438 60.2501 54.883 59.5443 55.5949 64.4847C59.0398 87.293 58.8446 87.1753 59.2924 87.4224C57.0418 87.1283 53.0802 86.8813 51.7826 86.4813ZM59.4072 81.7762C54.9289 55.7332 54.883 55.0039 52.9998 44.135C53.1491 43.6174 53.2639 43.1939 53.3443 42.8881C54.0562 43.8174 57.9374 48.9107 58.3623 50.0282C57.7308 50.6045 55.4571 51.5926 56.1461 52.3807C56.4562 52.7454 59.0168 55.0156 59.8206 55.839C60.257 57.7328 59.568 78.4826 59.4072 81.7762ZM31.3432 147.331C31.6647 145.837 33.766 136.121 34.3517 134.756C34.7765 133.745 48.6249 126.216 50.8066 125.652C53.9529 124.805 71.0853 126.546 72.2795 127.334C72.8186 129.386 73.1344 131.492 73.2211 133.615C71.292 131.263 56.3643 131.886 56.2035 135.203C56.2004 135.312 56.2227 135.42 56.2686 135.518C56.3146 135.617 56.3828 135.702 56.4676 135.768C56.4601 137.19 56.6182 138.607 56.9384 139.991C48.1196 142.426 39.3008 144.966 31.3432 147.331ZM75.1273 145.496C75.7129 147.437 68.8347 148.272 66.8481 148.507C64.4893 148.851 62.0879 148.727 59.7747 148.142C58.7642 147.86 56.8925 147.107 56.5365 146.166C56.3643 145.719 56.9269 145.296 57.3403 145.072C57.8641 144.792 58.4194 144.579 58.9939 144.437C59.6194 145.32 60.4583 146.021 61.4282 146.472C62.5765 146.99 67.4797 146.625 69.1791 146.249C69.9255 146.084 70.7178 145.86 71.8432 144.014C72.5321 144.119 74.932 144.849 75.1273 145.496ZM69.6385 145.084C68.7773 145.613 62.6913 146.037 61.7612 145.649C58.6838 144.39 57.0073 139.473 56.881 136.003C59.3827 136.567 61.9503 136.761 64.5056 136.579C66.4233 136.321 70.959 135.521 72.624 134.662C73.623 138.52 71.5102 143.967 69.6385 145.084ZM76.0574 139.014C75.7465 139.644 75.3099 140.2 74.7758 140.646C74.2416 141.092 73.622 141.418 72.957 141.602C73.5577 139.952 73.8423 138.199 73.7952 136.438C73.8859 136.244 74.0175 136.072 74.1805 135.936C74.3436 135.8 74.5341 135.703 74.7383 135.651C74.9426 135.599 75.1555 135.594 75.3617 135.637C75.5679 135.68 75.7624 135.768 75.9311 135.897C76.7923 136.474 76.4133 138.015 76.0574 139.014ZM194.331 42.1C202.093 46.4875 205.538 48.3226 208.018 52.169C206.458 50.7946 204.472 50.0319 202.415 50.0164C195.054 49.7576 191.437 60.9206 189.554 68.143C186.43 80.1882 188.348 95.4329 188.176 97.6678C186.189 99.5617 176.016 104.973 171.468 107.502C172.1 104.773 174.351 94.2448 175.82 90.0925C177.795 84.5169 183.479 71.5307 183.858 68.7076C183.962 67.8725 183.801 67.7666 181.39 66.1668C182.32 66.1668 184.834 65.9081 185.615 65.7551C185.948 65.7551 186.12 65.6022 186.247 64.8847C186.672 62.391 187.498 41.8412 187.567 39.6533C187.487 39.6063 193.343 41.5236 194.365 42.1H194.331ZM185.477 39.2887C186 39.2501 186.526 39.3098 187.028 39.4651C186.453 47.9932 185.879 62.9909 185.34 64.9082C184.731 65.0258 182.572 65.1788 181.734 65.2376C179.943 65.3434 179.897 65.2376 179.713 65.4964C179.529 65.7551 179.782 66.108 180.115 66.3433C180.701 66.7667 182.653 68.0254 182.928 68.3547C182.663 69.7552 182.255 71.1233 181.711 72.4364C175.223 90.0808 175.614 84.6581 171.25 104.008C171.542 94.7389 172.378 85.4962 173.753 76.33C174.672 71.2837 175.786 66.5433 179.495 55.7449C180.953 51.5691 183.973 43.5703 184.088 43.6174C184.664 42.2116 185.14 40.7649 185.512 39.2887H185.477ZM165.532 111.477C165.75 112.348 165.75 112.23 165.681 112.242L165.325 112.171C165.325 112.054 164.705 100.244 165.003 95.3623C165.543 86.7166 166.232 77.3416 166.875 68.3077C167.185 63.9319 168.356 54.5333 168.322 54.8862L169.47 54.0158C169.947 54.9896 170.488 55.9289 171.089 56.8271C171.319 57.1447 171.629 57.5446 171.997 57.5799C171.744 59.709 167.92 85.9755 166.795 102.761C166.175 111.901 166.795 109.96 165.888 110.795C165.78 110.87 165.694 110.972 165.637 111.092C165.581 111.212 165.556 111.345 165.566 111.477H165.532ZM172.353 57.5917C173.225 57.5917 174.167 55.7096 175.315 54.9098C175.763 55.392 177.118 57.6976 178.014 58.0034C174.213 68.6841 170.148 83.5759 170.159 108.16C169.183 108.701 167.863 109.478 166.887 110.054C167.461 100.044 171.618 67.1902 172.387 57.5917H172.353ZM184.41 41.7824C184.042 42.9587 178.588 56.4507 178.209 57.0741C177.617 56.4794 177.089 55.8208 176.636 55.1097C175.671 53.7805 175.338 53.3453 173.696 55.2391C176.13 50.534 180.884 45.7582 182.882 43.3821C184.788 41.1472 184.536 41.3354 184.41 41.7824ZM158.688 17.0803C159.545 17.3506 160.461 17.3506 161.318 17.0803C161.973 16.782 162.697 16.6761 163.407 16.7745C164.411 17.2484 165.443 17.657 166.496 17.9978C167.8 17.9861 169.1 17.88 170.389 17.6802C170.979 17.9629 171.48 18.4113 171.831 18.9735C172.183 19.5357 172.372 20.1886 172.375 20.8562C170.235 21.1746 168.17 21.888 166.278 22.9618C166.162 22.5756 165.932 22.2358 165.619 21.9893C165.306 21.7428 164.927 21.6017 164.533 21.5855C162.65 21.3534 160.748 21.3298 158.86 21.5149C158.693 20.0119 158.635 18.4981 158.688 16.9862V17.0803ZM158.24 27.1141C157.953 26.5965 157.39 22.5854 157.965 22.1501C158.056 22.2678 157.654 21.9031 159.836 21.9266C161.374 21.9764 162.908 22.1178 164.429 22.3501C165.463 22.5383 165.635 23.0206 165.578 24.044C165.578 25.9378 165.635 25.7496 165.578 26.3377C165.578 26.5024 165.509 26.9376 165.382 27.0317C163.02 27.4696 160.601 27.4656 158.24 27.02V27.1141ZM168.793 40.3708C165.647 39.4533 162.764 39.3357 160.824 35.2422C159.572 32.6073 160.261 31.8428 159.124 31.5016C158.703 31.4502 158.287 31.3556 157.884 31.2193C157.884 30.4312 158.849 28.7844 159.032 27.9492C160.939 28.1828 162.867 28.1828 164.774 27.9492C165.922 27.7728 166.531 27.5728 166.347 25.185V23.3617C168.15 22.7971 171.974 21.8678 172.433 21.7384C172.436 22.3783 172.521 23.0151 172.686 23.6323C172.865 24.0204 173.175 24.3293 173.558 24.5027C173.62 24.5306 173.686 24.5437 173.753 24.5409C173.82 24.538 173.886 24.5194 173.945 24.4864C174.004 24.4534 174.054 24.4069 174.093 24.3506C174.131 24.2942 174.157 24.2296 174.167 24.1616C174.431 23.0676 174.638 22.0913 174.718 21.6208C174.718 21.8796 174.821 20.7974 175.579 20.3739C176.727 19.7623 178.507 21.1268 178.634 23.0559C178.703 23.9969 177.784 25.7025 177.095 27.6669C176.682 28.8432 179.185 29.349 180.058 29.7843C180.379 30.5488 180.184 31.4075 180.62 31.8663C181.275 32.2798 181.993 32.578 182.744 32.7485C183.537 35.3485 184.113 38.0125 184.467 40.712C181.55 43.8527 180.896 44.6055 180.115 45.4171C177.065 48.3864 174.477 51.818 172.444 55.592C171.629 50.6869 170.079 46.3581 169.907 44.9348C169.769 43.8291 169.999 41.8765 169.493 40.8296C169.417 40.705 169.314 40.5993 169.193 40.52C169.072 40.4407 168.935 40.3898 168.793 40.3708ZM169.126 44.3585C169.677 46.4523 171.147 53.2512 171.572 55.9802C170.871 54.898 170.01 53.11 170.01 53.11C169.98 53.0462 169.937 52.9902 169.883 52.9459C169.829 52.9018 169.766 52.8706 169.699 52.8548C169.631 52.8389 169.561 52.8389 169.494 52.8545C169.427 52.8702 169.364 52.9013 169.31 52.9454L168.471 53.6041C168.793 50.5457 169.114 47.4286 169.16 44.3585H169.126ZM168.793 43.3116C168.689 51.969 167.002 59.6855 166.313 68.3077C164.016 97.2914 164.016 95.8681 164.246 106.125C163.005 96.8562 161.272 78.8237 160.318 69.0487C160.996 68.5194 164.269 65.9669 164.636 65.1905C164.808 64.8141 164.636 64.4259 163.809 64.4259C162.372 64.537 160.929 64.537 159.492 64.4259C160.364 60.7794 165.359 47.4756 166.691 43.9468C167.369 43.7468 167.932 43.5468 168.793 43.3116ZM115.409 85.4697C117.189 83.5524 139.523 79.0825 140.74 77.8709C142.451 76.1065 147.159 65.1552 151.959 56.8506C156.035 49.7929 158.252 47.1815 166.186 44.182C164.28 49.0166 160.56 58.4739 158.883 63.9789C158.78 64.3201 158.631 64.6965 158.883 64.92C159.515 65.5552 162.156 65.1788 163.671 65.2023C162.604 66.2962 159.664 68.5194 159.664 68.5194C159.607 68.5622 159.563 68.6195 159.534 68.6856C159.506 68.7517 159.495 68.8242 159.503 68.8958C159.986 74.3538 162.948 106.925 164.234 111.654L162.167 111.113C160.831 110.441 159.38 110.041 157.896 109.937C160.514 96.5974 159.572 92.8686 159.894 85.5991C159.894 84.8463 156.793 69.7192 156.77 69.6016C156.77 69.5517 156.751 69.5038 156.716 69.4685C156.682 69.4332 156.635 69.4134 156.587 69.4134C156.538 69.4134 156.491 69.4332 156.457 69.4685C156.422 69.5038 156.403 69.5517 156.403 69.6016C156.598 74.7537 158.022 79.6589 158.998 85.2815C155.323 88.8104 151.477 93.692 145.219 95.28C141.349 96.2798 123.229 100.326 120.817 100.503C118.842 98.2442 115.099 86.9754 115.409 85.4697ZM113.227 87.0342C113.227 87.0342 114.605 86.6931 114.582 86.4696C115.655 90.6029 117.005 94.6551 118.624 98.5971C117.58 98.9279 116.513 99.1757 115.432 99.3382C114.778 99.3382 115.237 99.9263 113.641 96.0446C112.657 93.6314 111.814 91.1608 111.114 88.6457C110.919 87.8341 110.586 87.9164 113.227 87.0342ZM99.7809 89.5162C100.688 88.4928 101.343 88.3399 110.414 89.5162C111.221 92.3209 112.199 95.071 113.342 97.7502C111.475 99.241 109.336 100.333 107.05 100.961C106.981 100.456 106.82 100.609 107.21 100.644C107.54 100.653 107.868 100.587 108.169 100.45C108.47 100.312 108.738 100.107 108.952 99.8498C109.165 99.5925 109.32 99.2892 109.404 98.9625C109.488 98.6357 109.5 98.2938 109.438 97.9619C109.346 96.7856 106.062 94.3389 105.132 93.6685C105.684 93.7849 106.257 93.74 106.785 93.5391C106.833 93.5235 106.872 93.4893 106.895 93.4441C106.917 93.3988 106.921 93.3463 106.906 93.2979C106.891 93.2496 106.857 93.2094 106.813 93.1862C106.769 93.1631 106.718 93.1588 106.671 93.1744C104.742 93.692 102.789 91.3394 102.537 91.2688C101.653 91.0453 102.204 93.1509 100.24 94.4095C99.9532 94.5977 98.8508 94.1743 98.7819 93.5979C98.6374 92.8844 98.6522 92.1467 98.8252 91.4398C98.9982 90.733 99.3249 90.0754 99.7809 89.5162ZM86.9431 93.2215C88.4129 92.6804 95.8997 90.3043 98.0585 90.8689C97.8155 91.8086 97.7608 92.7889 97.8977 93.7508C97.9707 94.0564 98.1071 94.3422 98.2977 94.5889C98.4883 94.8355 98.7285 95.0371 99.0021 95.1801C99.2757 95.323 99.5761 95.4038 99.8829 95.4169C100.19 95.4301 100.496 95.3754 100.78 95.2564C101.58 94.7097 102.182 93.9075 102.491 92.9744C103.513 93.6096 108.588 97.0562 108.519 98.2795C108.519 99.1029 108.095 99.7969 107.291 99.7263C106.612 99.4773 105.971 99.1328 105.385 98.703C104.795 98.2205 104.173 97.7803 103.524 97.3855C103.421 97.3307 103.302 97.3168 103.189 97.3467C103.077 97.3766 102.979 97.4481 102.915 97.5474C102.851 97.6467 102.825 97.7669 102.842 97.8846C102.859 98.0024 102.918 98.1096 103.008 98.1854C103.008 98.1854 103.869 98.8441 104.822 99.4793C106.257 100.656 106.751 101.738 104.971 102.291C104.693 102.375 104.4 102.4 104.111 102.364C103.823 102.327 103.545 102.23 103.295 102.079C103.002 101.487 102.614 100.95 102.146 100.491C101.938 99.9414 101.564 99.4741 101.079 99.1569C100.594 98.8397 100.022 98.6889 99.4479 98.7265C98.8508 98.7971 98.8049 99.1029 98.8623 98.8206C99.1379 97.4208 97.3925 96.5739 96.1753 96.8091C94.2117 97.2091 93.1209 99.8675 92.4778 101.808C92.0874 102.655 93.6261 101.714 86.9087 104.161C87.0979 100.745 87.0979 97.32 86.9087 93.9037C86.8512 93.0921 86.8283 93.2803 86.9431 93.2215ZM92.7994 101.938C93.4309 100.55 94.8203 97.9501 96.3016 97.7149C96.8758 97.609 98.0355 98.009 97.9092 98.6089C97.6606 100.202 96.9435 101.679 95.8538 102.844C95.9916 103.079 92.3975 103.149 92.7994 101.938ZM99.2987 99.6911C99.5742 99.4087 101.182 99.9851 101.228 100.867C101.308 102.338 99.9417 104.09 98.759 104.902C98.38 105.173 96.8873 103.926 96.5428 103.42C97.3629 102.104 98.2845 100.857 99.2987 99.6911ZM101.239 103.608C101.32 103.49 102.468 100.879 102.663 103.043C102.744 103.89 101.515 104.337 100.711 104.22C100.898 104.026 101.074 103.822 101.239 103.608ZM126.777 118.9C121.943 122.746 121.254 127.804 122.046 133.839C114.284 131.016 108.359 129.134 106.051 128.934C102.927 128.999 99.8177 129.394 96.7724 130.11C97.0825 126.946 96.9447 115.841 94.7514 113.559C92.5582 111.277 84.6006 108.16 81.6036 106.984H82.2811C82.5452 106.843 82.1088 105.608 83.1078 105.537C84.3135 105.467 86.0015 105.937 86.5527 105.443C86.7172 105.187 86.8124 104.891 86.8283 104.584C88.0914 104.173 91.0655 103.243 92.5697 102.844C93.0754 103.255 93.6674 103.54 94.2991 103.677C94.9308 103.813 95.5849 103.798 96.2098 103.632C96.5542 104.42 98.1618 106.149 99.1609 105.584C99.438 105.42 99.7028 105.236 99.9532 105.031C100.68 105.238 101.451 105.205 102.158 104.937C102.532 104.833 102.866 104.613 103.114 104.308C103.363 104.003 103.514 103.627 103.547 103.232C104.149 103.409 104.79 103.38 105.374 103.151C105.958 102.922 106.453 102.504 106.785 101.961C109.303 101.382 111.659 100.223 113.675 98.5736C113.893 99.0559 114.1 99.4676 114.272 99.7499C114.329 99.8491 114.41 99.9323 114.506 99.9918C114.602 100.051 114.711 100.085 114.823 100.091C115.972 100.209 118.682 98.9147 118.797 98.9147C119.19 99.7553 119.679 100.545 120.255 101.267C120.462 101.479 120.806 101.42 121.128 101.385C124.458 100.973 140.993 97.3267 145.414 96.1975C151.155 94.7271 154.899 90.5984 158.837 86.6695C158.619 93.4214 159.48 96.715 156.874 109.972C151.454 110.662 146.083 111.715 140.798 113.124C136.17 114.477 130.658 115.818 126.777 118.912V118.9ZM143.531 142.108L143.129 141.943C143.037 135.968 144.484 130.463 148.755 126.381C149.133 126.48 149.517 126.554 149.904 126.605C145.506 130.463 143.772 136.085 143.531 142.108ZM161.662 122.499C158.217 124.57 159.228 125.687 156.07 126.028C153.54 126.206 150.998 126.004 148.526 125.428C146.528 124.77 147.584 123.981 149.674 123.746C150.03 123.805 152.832 123.828 154.152 123.746C154.26 123.728 154.358 123.672 154.429 123.587C154.5 123.502 154.539 123.393 154.539 123.282C154.539 123.17 154.5 123.061 154.429 122.976C154.358 122.891 154.26 122.835 154.152 122.817C152.663 122.686 151.166 122.662 149.674 122.746C148.723 122.732 147.777 122.618 146.849 122.405C146.757 122.251 146.703 122.076 146.693 121.895C146.683 121.714 146.717 121.534 146.792 121.37C147.997 120.629 153.681 120.911 154.623 120.876C154.734 120.858 154.835 120.8 154.908 120.713C154.98 120.626 155.02 120.514 155.02 120.4C155.02 120.285 154.98 120.174 154.908 120.086C154.835 119.999 154.734 119.941 154.623 119.923C152.739 119.964 150.854 119.862 148.985 119.617C148.181 119.476 146.309 119.065 146.447 118.229C146.7 116.724 149.72 118.018 151.844 117.865C153.343 117.842 154.827 117.555 156.231 117.018C156.336 116.985 156.424 116.911 156.475 116.812C156.527 116.712 156.538 116.596 156.506 116.488C156.474 116.381 156.402 116.291 156.305 116.238C156.208 116.185 156.095 116.173 155.989 116.206C154.553 116.56 153.095 116.819 151.626 116.982C151.533 116.963 151.45 116.909 151.393 116.831C151.336 116.753 151.308 116.656 151.316 116.559C151.332 116.339 151.387 116.124 151.477 115.924C152.069 115.133 152.864 114.526 153.773 114.171C157.034 112.783 159.515 114.171 163.247 114.418C163.715 116.593 164.309 118.738 165.026 120.841C163.882 121.309 162.773 121.864 161.708 122.499H161.662ZM166.048 121.064C165.647 119.676 164.154 114.642 164.004 113.465C164.597 113.169 165.221 112.944 165.865 112.795C166.393 114.806 167.369 118.3 168.001 120.253C167.384 120.568 166.747 120.839 166.094 121.064H166.048ZM169.298 121.064C168.689 119.653 166.887 113.077 166.473 111.43C168.448 109.772 186.178 100.844 188.819 98.1266C189.646 97.2797 186.855 81.341 190.128 68.2253C191.873 61.1676 195.295 50.0752 202.357 50.3222C207.203 50.4869 209.97 54.2746 211.543 59.0032C214.426 67.7078 213.277 79.7883 213.277 79.6706C213.277 89.5397 209.833 104.373 202.943 111.43C197.741 116.771 172.536 121.664 169.344 121.099L169.298 121.064ZM216.642 130.004C215.298 129.639 209.132 127.31 206.525 127.087C192.987 125.911 193.825 123.276 185.454 119.512C190.048 118.335 200.256 115.606 203.643 112.171C210.797 104.902 214.104 89.9161 214.07 79.7765C214.336 76.2254 214.336 72.6587 214.07 69.1076C216.607 83.8582 218.169 125.534 216.642 130.004Z" fill="#0F172A"/>
<path fill-rule="evenodd" clip-rule="evenodd" d="M39.0941 50.487L35.3278 50.934C36.476 52.0401 37.5216 53.253 38.4511 54.557L39.496 51.0281C39.5279 50.9649 39.5416 50.8937 39.5356 50.8227C39.5296 50.7518 39.504 50.6841 39.462 50.6275C39.4199 50.5708 39.363 50.5276 39.2979 50.5027C39.2328 50.4779 39.1621 50.4724 39.0941 50.487ZM148.02 157.835C147.073 157.221 146.027 156.783 144.932 156.541C147.538 152.201 147.067 147.131 146.378 146.684C145.73 146.007 144.866 145.59 143.944 145.508C140.499 144.767 132.151 144.708 129.946 146.59C129.464 147.001 129.177 147.672 129.648 148.119C129.424 150.907 129.994 153.702 131.29 156.165C130.142 156.388 128.81 156.835 128.373 157.894C128.298 158.122 128.277 158.365 128.313 158.602C128.349 158.84 128.441 159.065 128.58 159.258C129.461 160.378 130.668 161.182 132.025 161.552C134.421 162.299 136.936 162.567 139.431 162.34C141.815 162.241 144.179 161.846 146.47 161.164C149.008 160.199 148.985 158.611 148.02 157.835ZM130.05 148.331C132.518 149.021 135.07 149.346 137.628 149.295C140.418 149.1 143.172 148.546 145.827 147.648C146.057 149.267 145.973 150.915 145.579 152.5C145.184 154.085 144.488 155.574 143.531 156.882C143.299 157.298 142.965 157.644 142.562 157.885C142.159 158.127 141.701 158.255 141.234 158.259C139.626 158.47 135.24 158.588 134.344 158.176C131.439 156.8 130.004 151.801 130.05 148.331ZM139.385 161.27C137.015 161.5 134.624 161.252 132.346 160.541C131.315 160.253 130.366 159.716 129.579 158.976C129.395 158.776 129.097 158.376 129.189 158.129C129.487 157.353 130.945 156.953 131.749 156.812C132.325 157.711 133.115 158.444 134.046 158.941C135.194 159.541 141.556 159.47 142.738 158.847C143.476 158.386 144.1 157.758 144.564 157.012C145.242 157.212 147.607 158.035 147.768 158.694C148.285 160.717 141.452 161.199 139.385 161.329V161.27Z" fill="#0F172A"/>
</svg>
