<svg width="32" height="26" viewBox="0 0 32 26" fill="none" xmlns="http://www.w3.org/2000/svg">
<path d="M26.75 2.04563C26.28 1.57563 26.28 0.815627 26.75 0.350627C27.22 -0.114373 27.98 -0.119372 28.445 0.350627L31.645 3.55063C31.87 3.77563 31.995 4.08063 31.995 4.40063C31.995 4.72063 31.87 5.02563 31.645 5.25063L28.445 8.45063C27.975 8.92063 27.215 8.92063 26.75 8.45063C26.285 7.98063 26.28 7.22063 26.75 6.75563L27.9 5.60563L19.2 5.59563C18.535 5.59563 18 5.06063 18 4.39563C18 3.73063 18.535 3.19563 19.2 3.19563H27.905L26.75 2.04563ZM5.25 18.8456L4.1 19.9956H12.8C13.465 19.9956 14 20.5306 14 21.1956C14 21.8606 13.465 22.3956 12.8 22.3956H4.095L5.245 23.5456C5.715 24.0156 5.715 24.7756 5.245 25.2406C4.775 25.7056 4.015 25.7106 3.55 25.2406L0.35 22.0456C0.125 21.8206 0 21.5156 0 21.1956C0 20.8756 0.125 20.5706 0.35 20.3456L3.55 17.1456C4.02 16.6756 4.78 16.6756 5.245 17.1456C5.71 17.6156 5.715 18.3756 5.245 18.8406L5.25 18.8456ZM4.8 3.19563H16.895C16.71 3.55563 16.6 3.96063 16.6 4.39563C16.6 5.83063 17.765 6.99563 19.2 6.99563H25.07C24.87 7.84563 25.1 8.77063 25.76 9.43563C26.775 10.4506 28.42 10.4506 29.435 9.43563L30.4 8.47063V19.1956C30.4 20.9606 28.965 22.3956 27.2 22.3956H15.105C15.29 22.0356 15.4 21.6306 15.4 21.1956C15.4 19.7606 14.235 18.5956 12.8 18.5956H6.93C7.13 17.7456 6.9 16.8206 6.24 16.1556C5.225 15.1406 3.58 15.1406 2.565 16.1556L1.6 17.1206V6.39563C1.6 4.63063 3.035 3.19563 4.8 3.19563ZM8 6.39563H4.8V9.59563C6.565 9.59563 8 8.16063 8 6.39563ZM27.2 15.9956C25.435 15.9956 24 17.4306 24 19.1956H27.2V15.9956ZM16 17.5956C17.273 17.5956 18.4939 17.0899 19.3941 16.1897C20.2943 15.2896 20.8 14.0687 20.8 12.7956C20.8 11.5226 20.2943 10.3017 19.3941 9.40152C18.4939 8.50134 17.273 7.99563 16 7.99563C14.727 7.99563 13.5061 8.50134 12.6059 9.40152C11.7057 10.3017 11.2 11.5226 11.2 12.7956C11.2 14.0687 11.7057 15.2896 12.6059 16.1897C13.5061 17.0899 14.727 17.5956 16 17.5956Z" fill="#60A5FA"/>
</svg>
