<svg width="240" height="180" viewBox="0 0 240 180" fill="none" xmlns="http://www.w3.org/2000/svg">
<path d="M186.15 70.6272C185.621 70.6272 185.621 71.609 186.15 71.609C187.409 71.609 204.942 71.3195 206.415 71.03C206.549 71.0098 206.672 70.9422 206.76 70.8394C206.849 70.7366 206.897 70.6055 206.897 70.4699C206.897 70.3342 206.849 70.2031 206.76 70.1003C206.672 69.9975 206.549 69.9299 206.415 69.9098C201.796 69.3056 191.235 70.5265 186.15 70.6272ZM193.173 96.33C192.594 96.33 192.695 97.2992 193.249 97.3243C197.352 97.4628 203.747 97.2488 207.938 97.06C208.706 97.06 208.794 95.8013 207.938 95.8013C203.243 95.8265 197.881 95.8894 193.173 96.33ZM193.715 52.9172C193.593 52.9225 193.477 52.9719 193.388 53.0563C193.3 53.1406 193.246 53.2542 193.235 53.3758C193.224 53.4974 193.258 53.6188 193.33 53.7174C193.402 53.816 193.507 53.885 193.627 53.9116C195.88 54.1885 203.193 54.478 205.395 53.5466C205.508 53.4907 205.6 53.3996 205.656 53.2871C205.712 53.1746 205.731 53.0468 205.708 52.9231C205.685 52.7994 205.623 52.6864 205.53 52.6013C205.437 52.5162 205.319 52.4636 205.194 52.4515C202.274 52.2753 197.591 53.2067 193.715 52.9172ZM179.34 77.2354C189.964 77.0844 201.997 76.3417 212.721 75.3599C213.388 75.3599 213.325 74.1012 212.633 74.1012C202.085 74.3656 189.762 75.0579 179.277 76.1403C179.132 76.1487 178.996 76.2144 178.899 76.323C178.803 76.4315 178.753 76.5741 178.761 76.7193C178.77 76.8646 178.835 77.0005 178.944 77.0973C179.052 77.1941 179.195 77.2438 179.34 77.2354ZM194.571 21.1727C197.529 20.9461 200.487 20.7699 203.382 20.4175C204.212 20.3294 203.998 19.1588 203.18 19.1588C200.235 19.3853 197.289 19.7629 194.369 20.1028C193.69 20.1783 193.878 21.223 194.571 21.1727ZM177.301 47.4293C176.672 47.4293 176.647 48.4992 177.301 48.5495C184.417 48.881 191.547 48.3825 198.548 47.0643C199.341 46.9258 199.215 45.6671 198.41 45.8055C191.438 46.9944 184.372 47.538 177.301 47.4293ZM200.726 27.2019C201.821 27.4662 201.984 25.6789 200.977 25.8551C196.065 26.6515 191.085 26.9593 186.112 26.7739C185.445 26.7739 185.294 27.7431 185.974 27.8187C190.895 28.3127 195.862 28.1051 200.726 27.2019ZM173.462 76.6438C172.48 76.2662 167.949 76.8956 166.678 77.034C166.061 77.034 166.036 78.0284 166.678 78.0158L171.826 77.8522C174.205 77.7641 174.192 76.9333 173.462 76.6438ZM178.661 131.108C177.603 130.856 170.089 131.423 168.855 131.498C168.201 131.498 168.327 132.505 168.981 132.493C170.315 132.493 177.628 132.493 178.786 132.128C179.302 131.951 179.126 131.209 178.661 131.108ZM168.843 125.784C172.38 125.947 181.14 126.098 184.677 125.255C184.76 125.254 184.841 125.236 184.917 125.202C184.992 125.168 185.059 125.119 185.114 125.057C185.169 124.995 185.211 124.923 185.236 124.844C185.261 124.765 185.27 124.682 185.261 124.6C185.252 124.518 185.226 124.439 185.185 124.367C185.143 124.296 185.087 124.234 185.02 124.185C184.954 124.136 184.877 124.102 184.797 124.085C184.716 124.068 184.632 124.067 184.551 124.084C179.378 124.084 174.582 124.953 168.994 124.726C168.327 124.701 168.15 125.746 168.843 125.784ZM181.052 103.404C181.807 103.265 181.744 102.145 180.951 102.145C175.363 102.712 174.192 102.85 168.465 103.077C167.911 103.077 167.848 104.033 168.465 104.071C172.672 104.35 176.898 104.126 181.052 103.404ZM188.806 95.4866C181.958 95.7384 174.847 96.8964 167.697 97.1481C167.569 97.1678 167.453 97.2325 167.369 97.3307C167.285 97.4288 167.238 97.5538 167.238 97.6831C167.238 97.8124 167.285 97.9374 167.369 98.0355C167.453 98.1336 167.569 98.1984 167.697 98.218C173.626 98.218 183.167 97.9411 188.944 96.6572C189.065 96.6039 189.165 96.5133 189.23 96.3987C189.296 96.2842 189.322 96.1518 189.307 96.0208C189.291 95.8899 189.234 95.7674 189.144 95.6713C189.054 95.5751 188.935 95.5104 188.806 95.4866ZM212.13 128.024C212.029 128.024 205.119 128.591 203.935 128.553C203.823 128.573 203.721 128.629 203.643 128.712C203.565 128.795 203.516 128.901 203.503 129.014C203.491 129.127 203.515 129.241 203.572 129.34C203.63 129.438 203.717 129.515 203.822 129.56C205.232 129.824 211.173 129.925 212.394 128.893C212.455 128.825 212.498 128.742 212.518 128.653C212.538 128.564 212.535 128.471 212.508 128.383C212.482 128.296 212.433 128.217 212.366 128.154C212.3 128.091 212.218 128.046 212.13 128.024ZM214.357 100.572C205.635 101.138 195.892 101.465 187.207 102.208C186.527 102.208 186.653 103.228 187.308 103.265C192.003 103.404 208.706 102.548 214.471 101.818C214.553 101.812 214.633 101.789 214.707 101.751C214.78 101.713 214.845 101.661 214.898 101.598C214.95 101.534 214.99 101.461 215.014 101.382C215.038 101.303 215.046 101.22 215.037 101.138C215.021 100.973 214.941 100.821 214.814 100.715C214.686 100.609 214.523 100.558 214.357 100.572ZM181.593 71.9489C181.76 71.9489 181.92 71.8825 182.038 71.7645C182.156 71.6465 182.223 71.4864 182.223 71.3195C182.223 71.1526 182.156 70.9925 182.038 70.8745C181.92 70.7565 181.76 70.6901 181.593 70.6901C176.168 70.8286 170.693 70.8664 165.23 71.2817C165.113 71.3078 165.008 71.3732 164.932 71.467C164.857 71.5608 164.816 71.6775 164.816 71.7978C164.816 71.9181 164.857 72.0348 164.932 72.1286C165.008 72.2224 165.113 72.2878 165.23 72.3139C170.718 72.4146 176.168 72.1251 181.593 71.9489ZM203.054 122.763C201.141 122.763 194.243 123.254 192.607 123.543C192.078 123.631 192.003 124.5 192.607 124.525C194.382 124.613 201.242 124.173 203.231 123.996C203.998 124.021 203.835 122.763 203.054 122.763ZM199.379 129.824L183.557 130.831C182.839 130.831 183.016 131.926 183.721 131.888C186.792 131.75 196.673 131.36 199.442 130.982C200.059 130.907 200.071 129.824 199.379 129.824ZM188.05 20.4175C183.406 19.8888 168.83 20.7699 163.883 21.2734C163.204 21.3363 163.153 22.3936 163.883 22.3307C172.015 21.802 179.932 21.6258 188.063 21.651C188.205 21.6207 188.332 21.5422 188.423 21.4289C188.514 21.3155 188.563 21.1743 188.561 21.0291C188.56 20.8839 188.508 20.7437 188.415 20.6322C188.322 20.5207 188.193 20.4449 188.05 20.4175ZM189.397 54.3899C190.19 54.2766 189.901 53.1312 189.108 53.1312C181.006 54.0542 172.855 54.4746 164.701 54.3899C164.583 54.4088 164.475 54.4692 164.398 54.5604C164.32 54.6515 164.277 54.7673 164.277 54.8871C164.277 55.0069 164.32 55.1227 164.398 55.2139C164.475 55.305 164.583 55.3654 164.701 55.3843C172.947 55.7814 181.211 55.4486 189.397 54.3899ZM180.851 28.0326C180.933 28.0248 181.014 28.0006 181.087 27.9614C181.161 27.9223 181.226 27.869 181.278 27.8046C181.331 27.7403 181.37 27.6661 181.394 27.5864C181.418 27.5067 181.426 27.4231 181.417 27.3403C181.409 27.2575 181.385 27.1771 181.346 27.1037C181.307 27.0303 181.253 26.9654 181.189 26.9127C181.125 26.8601 181.051 26.8207 180.971 26.7969C180.891 26.773 180.808 26.7652 180.725 26.7739C175.174 27.4662 169.912 27.4914 164.437 27.9697C163.858 28.0326 163.795 28.9767 164.437 29.0018C169.925 29.0905 175.412 28.7666 180.851 28.0326ZM165.255 47.9579C164.626 47.9579 164.613 48.9523 165.331 48.9775C167.59 49.1902 169.861 49.2491 172.128 49.1537C172.23 49.1081 172.317 49.0339 172.377 48.9401C172.438 48.8463 172.471 48.7369 172.471 48.625C172.471 48.5132 172.438 48.4038 172.377 48.31C172.317 48.2162 172.23 48.142 172.128 48.0964C171.901 47.9705 166.413 47.9579 165.255 47.9579ZM149.547 55.2081C150.277 55.2081 152.983 50.7271 154.506 49.1915C155.06 48.6376 154.153 47.7062 153.587 48.2349C151.981 49.6825 150.591 51.3525 149.458 53.1942L146.274 50.2614C145.619 49.6572 144.776 50.6893 145.38 51.3061C145.984 51.9229 148.615 55.2081 149.547 55.2081ZM140.937 34.6534C146.098 34.9555 151.46 34.8548 157.124 34.8926C157.527 34.8926 157.766 33.7723 157.124 20.4049C157.124 19.4357 157.036 18.7182 157.023 18.4539C157.027 18.4149 157.022 18.3757 157.008 18.3388C156.995 18.3019 156.975 18.2682 156.948 18.2399C156.583 17.8497 154.204 17.8749 148.854 18.0133C139.855 18.2273 138.86 18.1644 138.86 18.6805C138.822 18.7812 139.389 34.5024 140.937 34.6534ZM141.289 33.722C140.66 30.3612 140.207 23.2621 139.817 19.2846C143.48 19.4986 151.825 19.0832 156.029 18.9825C156.029 18.9825 156.256 30.1724 156.356 33.7849C151.422 33.6716 146.274 33.4828 141.239 33.659L141.289 33.722Z" fill="#0F172A"/>
<path d="M158.86 58.4939C159.917 58.0786 158.684 46.3474 158.508 43.2636C158.499 43.2002 158.468 43.1421 158.42 43.1C157.664 42.4454 141.691 43.314 140.886 43.3769C140.08 43.4398 140.886 47.8201 141.024 50.8033C141.314 58.2296 141.654 58.8716 142.031 58.9219C144.775 59.3121 156.343 59.4757 158.86 58.4939ZM141.654 44.409C147.104 44.0566 152.63 44.0314 157.539 44.0062C157.664 46.9516 157.866 55.2465 158.118 57.487C152.988 58.0176 147.825 58.1648 142.673 57.9275C142.887 56.052 141.842 46.5362 141.654 44.409ZM151.9 76.1913L154.82 73.5481C154.905 73.4042 154.942 73.237 154.927 73.0706C154.911 72.9041 154.843 72.7468 154.733 72.6212C154.623 72.4955 154.476 72.408 154.313 72.371C154.15 72.334 153.979 72.3495 153.825 72.4152C152.63 73.1517 151.545 74.0544 150.603 75.0963L147.985 72.6795C147.843 72.5477 147.655 72.4776 147.461 72.4847C147.267 72.4918 147.085 72.5754 146.953 72.7173C146.821 72.8592 146.751 73.0476 146.758 73.2412C146.765 73.4348 146.849 73.6176 146.991 73.7494L149.508 76.2669C147.242 78.6584 146.248 80.1563 146.474 80.836C146.701 81.5157 147.519 81.2136 147.733 80.9115C148.614 79.829 149.609 78.5955 150.679 77.45C151.739 78.6081 152.916 79.6541 154.19 80.5716C154.322 80.6057 154.46 80.6037 154.591 80.5659C154.721 80.528 154.839 80.4556 154.932 80.3564C155.024 80.2572 155.089 80.1348 155.118 80.0021C155.147 79.8694 155.139 79.7313 155.097 79.6024C154.149 78.3601 153.078 77.2172 151.9 76.1913ZM152.567 22.2306C150.556 23.989 148.913 26.128 147.733 28.5242C146.785 27.3891 145.693 26.3821 144.486 25.5285C143.743 25.0124 142.786 25.9942 143.517 26.548C144.952 27.817 146.294 29.1884 147.532 30.6514C147.859 30.9912 148.174 30.815 148.451 30.45C149.821 27.7794 151.512 25.2856 153.485 23.0236C154.09 22.3565 153.221 21.6139 152.567 22.2306ZM152.164 104.411C152.818 103.958 155.311 99.1501 156.758 97.5138C157.325 96.8845 156.343 96.0159 155.701 96.6831C153.978 98.4583 152.5 100.456 151.308 102.624L148.375 100.107C147.733 99.5655 146.877 100.535 147.544 101.177C148.212 101.819 151.081 105.343 152.164 104.411ZM161.768 120.548C161.289 119.604 144.07 120.548 143.907 120.548C143.869 120.553 143.833 120.567 143.803 120.589C143.772 120.611 143.747 120.64 143.731 120.674C143.152 121.605 143.731 136.748 144.146 138.157C144.637 139.869 161.327 138.447 162.158 138.522C162.183 138.528 162.209 138.528 162.234 138.522C162.259 138.517 162.283 138.506 162.303 138.49C162.323 138.475 162.34 138.455 162.352 138.432C162.364 138.409 162.371 138.384 162.372 138.359C162.636 136.433 161.831 120.674 161.768 120.548ZM144.712 121.467C149.747 121.681 155.701 121.366 160.811 121.354C160.887 123.456 161.34 135.791 161.403 137.453C155.814 137.704 151.119 137.616 145.165 137.453C145.228 135.35 144.788 123.38 144.712 121.505V121.467Z" fill="#0F172A"/>
<path d="M150.793 129.624C151.686 129.624 156.256 129.938 156.621 129.737C156.717 129.682 156.799 129.606 156.861 129.514C156.923 129.422 156.963 129.318 156.977 129.208C156.992 129.098 156.981 128.987 156.945 128.882C156.91 128.777 156.85 128.682 156.772 128.604C156.105 127.899 151.888 128.05 151.183 128.189C150.226 128.365 150.05 128.73 150.075 129.007C150.109 129.175 150.198 129.327 150.328 129.439C150.458 129.551 150.621 129.616 150.793 129.624ZM152.492 92.6806C148.363 92.7561 144.021 92.9072 143.303 92.9575C143.027 92.9575 142.737 93.1967 142.699 95.8148C142.699 98.949 143.241 108.88 144.499 108.968C147.017 109.157 160.032 109.207 161.706 109.082C161.97 109.082 162.184 109.082 161.706 102.536C161.441 99.1629 160.85 93.033 160.85 93.033C160.8 92.7813 160.774 92.5547 152.492 92.6806ZM159.906 93.7883C160.208 98.4832 160.372 103.291 160.875 108.012H144.864C144.373 103.468 144.046 98.7853 143.694 93.9771L159.906 93.7883ZM146.274 85.5941C151.384 85.5941 159.931 84.9018 160.007 84.864C160.812 84.4487 160.007 73.0826 159.742 68.224C159.742 67.3555 155.299 67.3429 151.611 67.4813C150 67.4813 141.994 67.9093 142.02 69.0547C142.448 85.9088 142.347 85.0906 142.662 85.2668C143.839 85.5741 145.06 85.6847 146.274 85.5941ZM143.618 84.3354C143.329 79.3761 143.228 74.1147 143.027 69.2309C148.253 68.7667 153.502 68.5902 158.748 68.7023C158.748 70.4267 159.088 81.8935 159.302 83.8067C157.439 83.9326 145.569 84.0207 143.656 84.348L143.618 84.3354Z" fill="#0F172A"/>
<path d="M238.16 104.222C234.862 14.5147 236.247 15.27 235.642 14.7413C234.786 13.9357 228.178 14.4644 226.554 14.5525L225.875 0.794922C225.907 0.711948 225.919 0.622378 225.91 0.533813C225.9 0.445249 225.869 0.360303 225.82 0.286182C225.77 0.212062 225.704 0.150956 225.626 0.108047C225.548 0.0651381 225.46 0.0416929 225.371 0.0397017C198.938 -0.28756 171.738 1.46203 144.462 3.31232C137.111 3.82839 129.47 4.28152 121.994 5.0745C121.924 5.06327 121.852 5.06769 121.784 5.08746C121.716 5.10723 121.654 5.14185 121.601 5.18881C121.548 5.23577 121.506 5.29392 121.478 5.35904C121.45 5.42416 121.437 5.49464 121.44 5.56539C122.825 39.1727 126.852 93.4981 133.813 153.651C133.889 154.344 139.628 153.74 144.789 153.4C144.856 154.88 145.123 156.345 145.582 157.755C146.337 158.711 239.708 152.921 239.595 148.944C239.192 134.003 238.651 118.874 238.16 104.222ZM231.086 143.469C197.982 148.503 168.213 149.913 134.971 152.783C128.388 95.7512 125.682 56.6308 122.384 5.95559C132.605 5.35141 170.404 1.8774 225.006 1.15994C226.366 37.7503 231.426 139.441 231.048 143.469H231.086ZM73.0805 56.9329C72.2246 56.9329 72.2371 58.5944 72.6399 59.2238C72.6864 59.3159 72.7589 59.3924 72.8484 59.4438C72.9378 59.4953 73.0404 59.5194 73.1434 59.5133C73.9112 59.4251 73.8735 57.021 73.0805 56.9329ZM68.5869 64.2082C69.1281 64.3467 70.5882 64.4348 70.9281 63.9313C71.4064 63.2264 70.1099 56.8322 69.9463 56.3791C69.9126 56.2866 69.8472 56.2091 69.7617 56.1604C69.6762 56.1116 69.5762 56.0948 69.4795 56.113C69.3827 56.1311 69.2956 56.183 69.2335 56.2594C69.1715 56.3358 69.1386 56.4317 69.1407 56.5301C69.1407 57.6756 69.6568 61.5649 69.8582 63.1887L68.5995 63.2642C68.5075 63.3034 68.4288 63.3685 68.3731 63.4515C68.3174 63.5346 68.287 63.6321 68.2857 63.7321C68.2844 63.8321 68.3121 63.9304 68.3656 64.0149C68.4191 64.0994 68.4959 64.1666 68.5869 64.2082ZM72.0106 54.5792C72.3832 54.4771 72.775 54.4673 73.1522 54.5507C73.5294 54.634 73.8806 54.8079 74.1756 55.0575C74.6664 55.498 75.6105 54.6547 74.2637 53.7988C73.2945 53.1442 71.0288 52.9177 71.2679 54.0757C71.307 54.2369 71.4047 54.3778 71.542 54.4709C71.6793 54.564 71.8463 54.6026 72.0106 54.5792Z" fill="#0F172A"/>
<path d="M108.915 100.334C100.822 92.3542 86.2584 82.9769 73.1678 81.114C73.3846 80.3658 73.3846 79.5714 73.1678 78.8232C74.1643 77.9903 75.0905 77.0767 75.937 76.0918C77.737 73.9772 77.6992 71.9129 75.1314 72.9576C77.6488 67.3942 77.6488 55.3358 76.7426 48.564C80.9592 51.1947 88.0709 48.6647 87.2024 43.5292C92.9295 45.2537 96.6553 33.875 89.38 31.8233C90.3995 23.2138 79.3733 21.9677 75.9999 26.9899C74.0993 21.4391 65.3639 24.3592 65.9932 28.7143C62.0535 24.4851 53.5446 25.9578 52.3614 31.2317C48.7993 27.9969 42.9211 29.3689 43.4372 34.1393C37.7982 31.5213 34.8151 38.2679 39.1954 40.4328C36.3885 41.9433 36.4766 48.1613 40.7813 48.1613C40.7813 52.315 43.2987 61.8307 49.5293 67.0418C50.1965 72.8695 49.0007 75.8526 46.9238 81.2525C26.3817 84.374 10.7864 100.397 3.78796 120.272C-4.19223 142.929 -0.40353 164.327 23.2476 168.833C23.1983 171.856 22.8441 174.867 22.1902 177.82C22.1785 177.931 22.2072 178.043 22.2713 178.135C22.3353 178.227 22.4303 178.293 22.5389 178.32C22.6475 178.348 22.7624 178.335 22.8625 178.285C22.9626 178.235 23.0412 178.15 23.0839 178.046C23.9265 175.114 24.3835 172.085 24.4433 169.034C30.1412 169.881 35.9621 168.993 41.1481 166.485C46.334 163.977 50.6449 159.966 53.5194 154.974C57.1631 156.359 60.8822 157.535 64.659 158.499C76.5412 161.86 92.0359 165.195 106.712 161.218C106.423 168.254 106.02 173.893 105.391 179.494C105.391 180.048 106.159 180.211 106.247 179.658C106.738 176.712 107.958 163.785 107.883 160.878C117.223 158.008 123.466 151.526 125.001 143.105C127.682 128.831 121.641 112.808 108.915 100.334ZM55.4578 46.1222C55.7851 49.7976 55.4578 52.4157 54.3376 54.1149C53.9222 54.7317 53.2929 55.3736 52.7516 55.3736C52.3363 54.9205 49.6175 52.101 47.0497 53.7499C45.3756 54.8449 45.3001 56.9722 46.8861 59.7413C48.0196 61.4232 48.8306 63.3012 49.2776 65.2796C44.4568 60.0434 42.9841 55.1345 41.8764 48.0983C43.1559 47.8675 44.3238 47.2217 45.1994 46.2606C47.4021 49.5332 52.7894 48.8787 55.4578 46.1222ZM47.6539 54.5806C49.3531 53.5359 50.9265 54.7946 52.3614 56.0533C53.2048 56.7959 54.5893 55.7512 55.2439 54.7946C56.9557 52.4282 56.8047 48.5011 56.5781 46.5375C57.7998 47.7011 59.4223 48.3501 61.1094 48.3501C62.7966 48.3501 64.4191 47.7011 65.6408 46.5375C65.8925 50.1626 73.4951 50.9933 75.4964 47.985C76.4153 54.2785 76.8559 67.8851 73.8098 73.587C71.2924 74.6946 65.5653 77.2246 62.7206 76.1044C60.2787 75.1352 59.0452 71.4094 56.2005 69.8109C54.2873 68.7536 52.6509 69.9493 53.9852 72.0891C57.3585 77.4512 57.0564 79.4903 54.388 85.0034C52.0492 84.366 49.8621 83.2661 47.956 81.7685C50.7251 77.8036 51.4803 70.7297 50.788 66.0222C50.1713 61.8307 49.5293 62.0825 47.8679 58.9861C47.1 57.7148 46.4203 55.361 47.6539 54.5806ZM68.8882 79.9686C68.7878 80.0152 68.708 80.0969 68.6637 80.1983C68.6193 80.2997 68.6137 80.4138 68.6478 80.5191C68.6818 80.6245 68.7533 80.7136 68.8486 80.7699C68.9439 80.8261 69.0565 80.8456 69.1652 80.8245C70.2445 80.6316 71.2677 80.2017 72.1609 79.5658C72.2334 80.7395 71.9243 81.9052 71.2798 82.8888C71.0532 83.2034 71.456 84.1475 72.2742 82.9769C72.2112 86.4509 70.4365 90.7431 67.0254 92.4297C64.7135 92.0118 62.5133 91.1193 60.5636 89.8087C58.6138 88.498 56.9568 86.7976 55.697 84.8146C59.4731 78.3449 56.1501 73.4863 55.0425 71.4724C54.4257 70.3144 54.7404 70.1381 55.7474 70.7927C58.1263 72.3031 60.2158 76.5198 62.5192 77.0862C66.8617 78.1309 72.2112 75.5128 74.8293 74.3422C76.1887 73.7254 76.9817 73.3101 75.3454 75.3617C73.1553 78.068 71.9091 78.6344 68.8882 79.9686ZM15.6198 133.69C15.5743 133.792 15.5671 133.908 15.5997 134.015C15.6324 134.122 15.7025 134.214 15.7973 134.273C15.8922 134.333 16.0053 134.357 16.116 134.34C16.2268 134.323 16.3277 134.266 16.4002 134.181C27.4391 116.786 45.7029 104.715 55.1054 86.0985C56.5655 89.3459 62.8087 93.5248 66.6603 93.5248C66.6603 96.6589 66.3457 100.385 66.0184 103.959C62.2423 103.091 52.0342 99.8938 50.1965 95.7149C49.9825 95.1989 49.1517 95.5513 49.3531 96.0674C51.0776 100.737 61.7262 104.488 65.9051 105.281C65.0224 114.686 63.2738 123.989 60.6815 133.073C58.7808 139.87 56.3389 148.089 52.8146 154.169C50.0048 159.167 45.7056 163.165 40.5162 165.604C35.3268 168.043 29.5057 168.802 23.8643 167.775C0.628611 163.697 -2.87059 142.74 5.02149 120.599C12.3975 99.856 28.5467 85.2551 47.1756 82.486C49.2006 83.9792 51.4141 85.1981 53.7586 86.111C44.3183 104.324 26.3188 116.282 15.6198 133.69ZM61.764 133.602C73.995 128.447 86.9904 125.339 100.23 124.401C104.006 124.149 107.782 124.162 111.558 124.162C112.112 124.162 112.125 123.255 111.558 123.255C108.99 123.077 106.415 123.031 103.843 123.117C103.226 118.082 94.1505 103.393 91.0666 99.3274C90.9877 99.2528 90.8846 99.209 90.776 99.204C90.6675 99.1991 90.5608 99.2333 90.4754 99.3004C90.39 99.3675 90.3315 99.4631 90.3107 99.5697C90.2898 99.6763 90.3079 99.7869 90.3618 99.8812C96.542 108.541 101.539 119.567 102.533 123.167C91.4694 123.583 74.4014 126.201 62.1164 132.217C63.2744 127.975 67.7554 110.479 67.8561 93.1975C71.3176 91.6493 73.7846 86.0481 73.4951 82.2846C86.5459 85.2568 98.5157 91.7928 108.072 101.165C119.287 112.154 126.159 126.339 124.045 141.758C122.924 150.569 116.669 157.391 107.329 159.871C91.2303 164.276 74.6657 160.45 58.7682 155.516C57.2293 154.998 55.6617 154.569 54.0733 154.232C57.2903 147.617 59.8656 140.708 61.764 133.602Z" fill="#0F172A"/>
<path d="M61.1472 52.5653C61.4725 52.0846 61.9063 51.6872 62.4136 51.4051C62.9209 51.1231 63.4874 50.9643 64.0674 50.9416C64.9862 50.9416 64.9359 49.557 64.0674 49.6829C63.3197 49.7615 62.5999 50.0099 61.963 50.4091C61.326 50.8083 60.7886 51.3478 60.3919 51.9863C60.0647 52.5024 60.7947 53.0688 61.1472 52.5653ZM64.1177 56.0519C63.6016 56.4673 63.6394 58.5694 64.4198 58.5694C64.5983 58.5507 64.7652 58.4721 64.8932 58.3464C65.0213 58.2206 65.1029 58.0552 65.1247 57.8771C65.4142 56.782 64.6715 55.6617 64.1177 56.0519ZM63.01 66.4488C62.9865 66.3504 62.9332 66.2617 62.8573 66.1948C62.7814 66.1278 62.6867 66.086 62.5861 66.075C62.4855 66.064 62.384 66.0843 62.2954 66.1332C62.2068 66.1821 62.1355 66.2572 62.0912 66.3481C61.9653 66.5244 61.7262 67.0656 62.2548 68.1607C62.6137 68.9062 63.233 69.4945 63.996 69.8145C64.759 70.1345 65.6127 70.1641 66.396 69.8977C66.5021 69.8556 66.589 69.776 66.6402 69.674C66.6915 69.572 66.7035 69.4547 66.674 69.3445C66.6445 69.2342 66.5755 69.1386 66.4802 69.0758C66.3848 69.0131 66.2698 68.9875 66.1568 69.004C64.3694 69.3565 63.3373 68.2236 63.01 66.4488Z" fill="#0F172A"/>
</svg>
